<svg width="266" height="206" viewBox="0 0 266 206" fill="none" xmlns="http://www.w3.org/2000/svg">
<g filter="url(#filter0_b_6_5)">
<rect width="266" height="202" fill="#FAFF00"/>
</g>
<g filter="url(#filter1_dd_6_5)">
<path d="M13 12H253V191H13V12Z" fill="#6FA8DC"/>
<path d="M13 8.5C11.067 8.5 9.5 10.067 9.5 12V191C9.5 192.933 11.067 194.5 13 194.5H253C254.933 194.5 256.5 192.933 256.5 191V12C256.5 10.067 254.933 8.5 253 8.5H13Z" stroke="black" stroke-width="7" stroke-linejoin="round"/>
</g>
<g filter="url(#filter2_d_6_5)">
<path d="M29.624 74.0293H46.4258C64.4199 74.0293 73.417 82.7614 73.417 100.226C73.417 118.075 64.4199 127 46.4258 127H29.624V74.0293ZM36.6338 120.713H46.2812C53.9655 120.713 59.2048 118.93 61.999 115.365C64.7933 111.776 66.1904 106.729 66.1904 100.226C66.1904 93.8903 64.7933 88.9883 61.999 85.5195C59.2288 82.0508 53.9896 80.3164 46.2812 80.3164H36.6338V120.713ZM98.4932 127.903C92.8564 127.903 88.3278 126.145 84.9072 122.628C81.4867 119.087 79.7764 114.161 79.7764 107.85C79.7764 101.587 81.4264 96.6846 84.7266 93.1436C88.0508 89.5785 92.3867 87.7959 97.7344 87.7959C103.202 87.7959 107.562 89.5423 110.814 93.0352C114.09 96.528 115.729 101.466 115.729 107.85V109.476H86.8584C87.1475 113.908 88.3639 117.196 90.5078 119.34C92.6758 121.484 95.3376 122.556 98.4932 122.556C100.878 122.556 103.022 121.953 104.925 120.749C106.852 119.521 107.864 117.786 107.96 115.546H115.006C114.476 119.496 112.681 122.544 109.622 124.688C106.587 126.831 102.877 127.903 98.4932 127.903ZM108.538 104.128C107.984 100.442 106.743 97.6842 104.816 95.8535C102.889 94.0228 100.529 93.1074 97.7344 93.1074C95.0124 93.1074 92.6758 94.0228 90.7246 95.8535C88.7734 97.6602 87.5329 100.418 87.0029 104.128H108.538ZM147.67 116.919V108.428H143.009C133.132 108.428 128.194 111.114 128.194 116.485C128.194 118.437 128.917 119.942 130.362 121.002C131.808 122.038 133.759 122.556 136.216 122.556C138.456 122.556 140.624 122.05 142.72 121.038C144.815 120.026 146.465 118.653 147.67 116.919ZM147.67 123.062C144.201 126.289 139.733 127.903 134.265 127.903C130.459 127.903 127.327 126.88 124.87 124.832C122.413 122.76 121.185 120.099 121.185 116.847C121.185 107.886 128.905 103.405 144.346 103.405H147.67C147.67 100.659 147.525 98.6719 147.236 97.4434C146.947 96.1908 146.14 95.1549 144.815 94.3359C143.491 93.5169 141.383 93.1074 138.492 93.1074C132.422 93.1074 129.29 95.2754 129.098 99.6113H122.305C122.811 91.7344 128.327 87.7959 138.854 87.7959C143.768 87.7959 147.598 88.7715 150.344 90.7227C153.09 92.6738 154.463 96.5039 154.463 102.213V127H147.67V123.062ZM171.409 127H164.58V74.0293H171.409V127ZM197.786 127.903C192.149 127.903 187.621 126.145 184.2 122.628C180.78 119.087 179.069 114.161 179.069 107.85C179.069 101.587 180.719 96.6846 184.02 93.1436C187.344 89.5785 191.68 87.7959 197.027 87.7959C202.495 87.7959 206.855 89.5423 210.107 93.0352C213.383 96.528 215.021 101.466 215.021 107.85V109.476H186.151C186.44 113.908 187.657 117.196 189.801 119.34C191.969 121.484 194.631 122.556 197.786 122.556C200.171 122.556 202.315 121.953 204.218 120.749C206.145 119.521 207.157 117.786 207.253 115.546H214.299C213.769 119.496 211.974 122.544 208.915 124.688C205.88 126.831 202.17 127.903 197.786 127.903ZM207.831 104.128C207.277 100.442 206.036 97.6842 204.109 95.8535C202.182 94.0228 199.822 93.1074 197.027 93.1074C194.305 93.1074 191.969 94.0228 190.018 95.8535C188.066 97.6602 186.826 100.418 186.296 104.128H207.831ZM242.591 94.8779C241.627 94.5889 240.242 94.4443 238.436 94.4443C234.967 94.4443 231.992 96.263 229.511 99.9004V127H222.682V88.6631H229.511V94.0107C232.377 89.8675 235.701 87.7959 239.483 87.7959C240.447 87.7959 241.483 87.8923 242.591 88.085V94.8779Z" fill="black"/>
<path d="M29.624 74.0293V73.0293H28.624V74.0293H29.624ZM29.624 127H28.624V128H29.624V127ZM36.6338 120.713H35.6338V121.713H36.6338V120.713ZM61.999 115.365L62.7861 115.982L62.7881 115.98L61.999 115.365ZM61.999 85.5195L61.2176 86.1436L61.2203 86.1469L61.999 85.5195ZM36.6338 80.3164V79.3164H35.6338V80.3164H36.6338ZM29.624 75.0293H46.4258V73.0293H29.624V75.0293ZM46.4258 75.0293C55.2761 75.0293 61.7288 77.177 65.9727 81.296C70.2111 85.4096 72.417 91.6554 72.417 100.226H74.417C74.417 91.3316 72.1243 84.4793 67.3657 79.8608C62.6125 75.2477 55.5696 73.0293 46.4258 73.0293V75.0293ZM72.417 100.226C72.417 108.994 70.208 115.387 65.9649 119.596C61.7204 123.807 55.2707 126 46.4258 126V128C55.575 128 62.621 125.731 67.3734 121.016C72.1274 116.301 74.417 109.307 74.417 100.226H72.417ZM46.4258 126H29.624V128H46.4258V126ZM30.624 127V74.0293H28.624V127H30.624ZM36.6338 121.713H46.2812V119.713H36.6338V121.713ZM46.2812 121.713C54.064 121.713 59.7028 119.916 62.7861 115.982L61.212 114.748C58.7067 117.945 53.867 119.713 46.2812 119.713V121.713ZM62.7881 115.98C65.7669 112.153 67.1904 106.859 67.1904 100.226H65.1904C65.1904 106.6 63.8197 111.399 61.21 114.751L62.7881 115.98ZM67.1904 100.226C67.1904 93.7564 65.7649 88.6004 62.7778 84.8922L61.2203 86.1469C63.8217 89.3762 65.1904 94.0242 65.1904 100.226H67.1904ZM62.7804 84.8955C59.7178 81.0606 54.0782 79.3164 46.2812 79.3164V81.3164C53.901 81.3164 58.7399 83.041 61.2176 86.1436L62.7804 84.8955ZM46.2812 79.3164H36.6338V81.3164H46.2812V79.3164ZM35.6338 80.3164V120.713H37.6338V80.3164H35.6338ZM84.9072 122.628L84.188 123.323L84.1904 123.325L84.9072 122.628ZM84.7266 93.1436L83.9952 92.4616L83.995 92.4618L84.7266 93.1436ZM110.814 93.0352L110.083 93.7166L110.085 93.7193L110.814 93.0352ZM115.729 109.476V110.476H116.729V109.476H115.729ZM86.8584 109.476V108.476H85.7911L85.8605 109.541L86.8584 109.476ZM90.5078 119.34L89.8007 120.047L89.8047 120.051L90.5078 119.34ZM104.925 120.749L105.46 121.594L105.462 121.592L104.925 120.749ZM107.96 115.546V114.546H107.002L106.961 115.503L107.96 115.546ZM115.006 115.546L115.997 115.679L116.149 114.546H115.006V115.546ZM109.622 124.688L109.048 123.869L109.045 123.871L109.622 124.688ZM108.538 104.128V105.128H109.7L109.527 103.979L108.538 104.128ZM90.7246 95.8535L91.404 96.5873L91.4088 96.5828L90.7246 95.8535ZM87.0029 104.128L86.013 103.987L85.8499 105.128H87.0029V104.128ZM98.4932 126.903C93.0827 126.903 88.8279 125.225 85.6241 121.931L84.1904 123.325C87.8277 127.065 92.6302 128.903 98.4932 128.903V126.903ZM85.6265 121.933C82.4327 118.627 80.7764 113.978 80.7764 107.85H78.7764C78.7764 114.344 80.5406 119.547 84.188 123.323L85.6265 121.933ZM80.7764 107.85C80.7764 101.763 82.3766 97.1318 85.4581 93.8253L83.995 92.4618C80.4763 96.2373 78.7764 101.41 78.7764 107.85H80.7764ZM85.4579 93.8255C88.5735 90.4842 92.6341 88.7959 97.7344 88.7959V86.7959C92.1393 86.7959 87.528 88.6727 83.9952 92.4616L85.4579 93.8255ZM97.7344 88.7959C102.969 88.7959 107.048 90.4573 110.083 93.7166L111.546 92.3537C108.077 88.6273 103.436 86.7959 97.7344 86.7959V88.7959ZM110.085 93.7193C113.136 96.972 114.729 101.634 114.729 107.85H116.729C116.729 101.299 115.045 96.084 111.544 92.351L110.085 93.7193ZM114.729 107.85V109.476H116.729V107.85H114.729ZM115.729 108.476H86.8584V110.476H115.729V108.476ZM85.8605 109.541C86.1582 114.105 87.4205 117.667 89.8007 120.047L91.2149 118.633C89.3073 116.725 88.1367 113.711 87.8563 109.411L85.8605 109.541ZM89.8047 120.051C92.167 122.387 95.0846 123.556 98.4932 123.556V121.556C95.5906 121.556 93.1845 120.58 91.211 118.629L89.8047 120.051ZM98.4932 123.556C101.056 123.556 103.387 122.906 105.46 121.594L104.39 119.904C102.657 121.001 100.7 121.556 98.4932 121.556V123.556ZM105.462 121.592C107.658 120.192 108.848 118.163 108.959 115.589L106.961 115.503C106.879 117.41 106.045 118.849 104.387 119.906L105.462 121.592ZM107.96 116.546H115.006V114.546H107.96V116.546ZM114.015 115.413C113.519 119.107 111.862 121.897 109.048 123.869L110.196 125.506C113.501 123.191 115.433 119.885 115.997 115.679L114.015 115.413ZM109.045 123.871C106.207 125.875 102.709 126.903 98.4932 126.903V128.903C103.046 128.903 106.966 127.788 110.199 125.504L109.045 123.871ZM109.527 103.979C108.953 100.16 107.647 97.1637 105.505 95.1285L104.128 96.5785C105.84 98.2048 107.015 100.724 107.549 104.277L109.527 103.979ZM105.505 95.1285C103.382 93.1115 100.77 92.1074 97.7344 92.1074V94.1074C100.287 94.1074 102.397 94.9341 104.128 96.5785L105.505 95.1285ZM97.7344 92.1074C94.7631 92.1074 92.1805 93.1163 90.0404 95.1243L91.4088 96.5828C93.1711 94.9293 95.2617 94.1074 97.7344 94.1074V92.1074ZM90.0452 95.1198C87.8684 97.1353 86.5623 100.141 86.013 103.987L87.9929 104.269C88.5034 100.696 89.6784 98.185 91.404 96.5873L90.0452 95.1198ZM87.0029 105.128H108.538V103.128H87.0029V105.128ZM147.67 116.919L148.491 117.489L148.67 117.232V116.919H147.67ZM147.67 108.428H148.67V107.428H147.67V108.428ZM130.362 121.002L129.771 121.808L129.78 121.815L130.362 121.002ZM147.67 123.062H148.67V120.765L146.989 122.329L147.67 123.062ZM124.87 124.832L124.226 125.597L124.23 125.6L124.87 124.832ZM147.67 103.405V104.405H148.67V103.405H147.67ZM147.236 97.4434L146.262 97.6682L146.263 97.6724L147.236 97.4434ZM129.098 99.6113V100.611H130.054L130.097 99.6557L129.098 99.6113ZM122.305 99.6113L121.307 99.5472L121.238 100.611H122.305V99.6113ZM154.463 127V128H155.463V127H154.463ZM147.67 127H146.67V128H147.67V127ZM148.67 116.919V108.428H146.67V116.919H148.67ZM147.67 107.428H143.009V109.428H147.67V107.428ZM143.009 107.428C138.013 107.428 134.109 108.101 131.42 109.564C130.061 110.303 128.992 111.255 128.268 112.438C127.541 113.623 127.194 114.984 127.194 116.485H129.194C129.194 115.301 129.465 114.312 129.973 113.483C130.483 112.651 131.266 111.924 132.376 111.321C134.626 110.097 138.129 109.428 143.009 109.428V107.428ZM127.194 116.485C127.194 118.722 128.043 120.541 129.771 121.808L130.954 120.196C129.791 119.343 129.194 118.151 129.194 116.485H127.194ZM129.78 121.815C131.449 123.011 133.628 123.556 136.216 123.556V121.556C133.89 121.556 132.166 121.065 130.945 120.189L129.78 121.815ZM136.216 123.556C138.613 123.556 140.929 123.013 143.154 121.939L142.285 120.138C140.319 121.086 138.3 121.556 136.216 121.556V123.556ZM143.154 121.939C145.389 120.86 147.179 119.379 148.491 117.489L146.849 116.349C145.752 117.927 144.242 119.193 142.285 120.138L143.154 121.939ZM146.989 122.329C143.733 125.359 139.522 126.903 134.265 126.903V128.903C139.944 128.903 144.669 127.22 148.351 123.794L146.989 122.329ZM134.265 126.903C130.646 126.903 127.755 125.934 125.51 124.064L124.23 125.6C126.899 127.825 130.271 128.903 134.265 128.903V126.903ZM125.515 124.068C123.286 122.188 122.185 119.808 122.185 116.847H120.185C120.185 120.389 121.54 123.332 124.226 125.597L125.515 124.068ZM122.185 116.847C122.185 112.721 123.926 109.691 127.477 107.631C131.11 105.522 136.689 104.405 144.346 104.405V102.405C136.561 102.405 130.56 103.529 126.473 105.901C122.303 108.321 120.185 112.011 120.185 116.847H122.185ZM144.346 104.405H147.67V102.405H144.346V104.405ZM148.67 103.405C148.67 100.65 148.527 98.5636 148.21 97.2143L146.263 97.6724C146.524 98.7801 146.67 100.668 146.67 103.405H148.67ZM148.211 97.2185C147.849 95.6524 146.842 94.413 145.341 93.4853L144.29 95.1865C145.439 95.8969 146.045 96.7292 146.262 97.6682L148.211 97.2185ZM145.341 93.4853C143.773 92.5161 141.433 92.1074 138.492 92.1074V94.1074C141.332 94.1074 143.208 94.5178 144.29 95.1865L145.341 93.4853ZM138.492 92.1074C135.365 92.1074 132.827 92.6612 131.022 93.9112C129.161 95.1996 128.207 97.1364 128.099 99.5669L130.097 99.6557C130.181 97.7503 130.889 96.4352 132.16 95.5556C133.486 94.6376 135.549 94.1074 138.492 94.1074V92.1074ZM129.098 98.6113H122.305V100.611H129.098V98.6113ZM123.303 99.6754C123.54 95.9817 124.93 93.3285 127.402 91.5636C129.921 89.7657 133.691 88.7959 138.854 88.7959V86.7959C133.489 86.7959 129.238 87.7954 126.24 89.9359C123.196 92.1095 121.575 95.3641 121.307 99.5472L123.303 99.6754ZM138.854 88.7959C143.651 88.7959 147.249 89.7506 149.765 91.5378L150.923 89.9075C147.946 87.7924 143.884 86.7959 138.854 86.7959V88.7959ZM149.765 91.5378C152.106 93.2015 153.463 96.6044 153.463 102.213H155.463C155.463 96.4034 154.074 92.1461 150.923 89.9075L149.765 91.5378ZM153.463 102.213V127H155.463V102.213H153.463ZM154.463 126H147.67V128H154.463V126ZM148.67 127V123.062H146.67V127H148.67ZM171.409 127V128H172.409V127H171.409ZM164.58 127H163.58V128H164.58V127ZM164.58 74.0293V73.0293H163.58V74.0293H164.58ZM171.409 74.0293H172.409V73.0293H171.409V74.0293ZM171.409 126H164.58V128H171.409V126ZM165.58 127V74.0293H163.58V127H165.58ZM164.58 75.0293H171.409V73.0293H164.58V75.0293ZM170.409 74.0293V127H172.409V74.0293H170.409ZM184.2 122.628L183.481 123.323L183.483 123.325L184.2 122.628ZM184.02 93.1436L183.288 92.4616L183.288 92.4618L184.02 93.1436ZM210.107 93.0352L209.376 93.7166L209.378 93.7193L210.107 93.0352ZM215.021 109.476V110.476H216.021V109.476H215.021ZM186.151 109.476V108.476H185.084L185.153 109.541L186.151 109.476ZM189.801 119.34L189.094 120.047L189.098 120.051L189.801 119.34ZM204.218 120.749L204.753 121.594L204.755 121.592L204.218 120.749ZM207.253 115.546V114.546H206.295L206.254 115.503L207.253 115.546ZM214.299 115.546L215.29 115.679L215.442 114.546H214.299V115.546ZM208.915 124.688L208.341 123.869L208.338 123.871L208.915 124.688ZM207.831 104.128V105.128H208.993L208.82 103.979L207.831 104.128ZM190.018 95.8535L190.697 96.5873L190.702 96.5828L190.018 95.8535ZM186.296 104.128L185.306 103.987L185.143 105.128H186.296V104.128ZM197.786 126.903C192.376 126.903 188.121 125.225 184.917 121.931L183.483 123.325C187.121 127.065 191.923 128.903 197.786 128.903V126.903ZM184.919 121.933C181.726 118.627 180.069 113.978 180.069 107.85H178.069C178.069 114.344 179.834 119.547 183.481 123.323L184.919 121.933ZM180.069 107.85C180.069 101.763 181.67 97.1318 184.751 93.8253L183.288 92.4618C179.769 96.2373 178.069 101.41 178.069 107.85H180.069ZM184.751 93.8255C187.866 90.4842 191.927 88.7959 197.027 88.7959V86.7959C191.432 86.7959 186.821 88.6727 183.288 92.4616L184.751 93.8255ZM197.027 88.7959C202.262 88.7959 206.341 90.4573 209.376 93.7166L210.839 92.3537C207.37 88.6273 202.729 86.7959 197.027 86.7959V88.7959ZM209.378 93.7193C212.429 96.972 214.021 101.634 214.021 107.85H216.021C216.021 101.299 214.338 96.084 210.837 92.351L209.378 93.7193ZM214.021 107.85V109.476H216.021V107.85H214.021ZM215.021 108.476H186.151V110.476H215.021V108.476ZM185.153 109.541C185.451 114.105 186.714 117.667 189.094 120.047L190.508 118.633C188.6 116.725 187.43 113.711 187.149 109.411L185.153 109.541ZM189.098 120.051C191.46 122.387 194.378 123.556 197.786 123.556V121.556C194.884 121.556 192.478 120.58 190.504 118.629L189.098 120.051ZM197.786 123.556C200.349 123.556 202.68 122.906 204.753 121.594L203.683 119.904C201.95 121.001 199.993 121.556 197.786 121.556V123.556ZM204.755 121.592C206.951 120.192 208.141 118.163 208.252 115.589L206.254 115.503C206.172 117.41 205.338 118.849 203.68 119.906L204.755 121.592ZM207.253 116.546H214.299V114.546H207.253V116.546ZM213.308 115.413C212.812 119.107 211.155 121.897 208.341 123.869L209.489 125.506C212.794 123.191 214.726 119.885 215.29 115.679L213.308 115.413ZM208.338 123.871C205.5 125.875 202.002 126.903 197.786 126.903V128.903C202.339 128.903 206.259 127.788 209.492 125.504L208.338 123.871ZM208.82 103.979C208.246 100.16 206.94 97.1637 204.798 95.1285L203.421 96.5785C205.133 98.2048 206.308 100.724 206.842 104.277L208.82 103.979ZM204.798 95.1285C202.675 93.1115 200.063 92.1074 197.027 92.1074V94.1074C199.58 94.1074 201.69 94.9341 203.421 96.5785L204.798 95.1285ZM197.027 92.1074C194.056 92.1074 191.473 93.1163 189.333 95.1243L190.702 96.5828C192.464 94.9293 194.555 94.1074 197.027 94.1074V92.1074ZM189.338 95.1198C187.161 97.1353 185.855 100.141 185.306 103.987L187.286 104.269C187.796 100.696 188.971 98.185 190.697 96.5873L189.338 95.1198ZM186.296 105.128H207.831V103.128H186.296V105.128ZM242.591 94.8779L242.303 95.8358L243.591 96.222V94.8779H242.591ZM229.511 99.9004L228.685 99.3369L228.511 99.5918V99.9004H229.511ZM229.511 127V128H230.511V127H229.511ZM222.682 127H221.682V128H222.682V127ZM222.682 88.6631V87.6631H221.682V88.6631H222.682ZM229.511 88.6631H230.511V87.6631H229.511V88.6631ZM229.511 94.0107H228.511V97.2137L230.333 94.5797L229.511 94.0107ZM242.591 88.085H243.591V87.2439L242.762 87.0997L242.591 88.085ZM242.878 93.9201C241.775 93.5892 240.275 93.4443 238.436 93.4443V95.4443C240.209 95.4443 241.479 95.5885 242.303 95.8358L242.878 93.9201ZM238.436 93.4443C234.547 93.4443 231.296 95.509 228.685 99.3369L230.337 100.464C232.688 97.017 235.386 95.4443 238.436 95.4443V93.4443ZM228.511 99.9004V127H230.511V99.9004H228.511ZM229.511 126H222.682V128H229.511V126ZM223.682 127V88.6631H221.682V127H223.682ZM222.682 89.6631H229.511V87.6631H222.682V89.6631ZM228.511 88.6631V94.0107H230.511V88.6631H228.511ZM230.333 94.5797C233.081 90.6077 236.134 88.7959 239.483 88.7959V86.7959C235.269 86.7959 231.673 89.1273 228.688 93.4418L230.333 94.5797ZM239.483 88.7959C240.381 88.7959 241.359 88.8857 242.419 89.0702L242.762 87.0997C241.607 86.8988 240.513 86.7959 239.483 86.7959V88.7959ZM241.591 88.085V94.8779H243.591V88.085H241.591Z" fill="black"/>
</g>
<defs>
<filter id="filter0_b_6_5" x="-10" y="-10" width="286" height="222" filterUnits="userSpaceOnUse" color-interpolation-filters="sRGB">
<feFlood flood-opacity="0" result="BackgroundImageFix"/>
<feGaussianBlur in="BackgroundImageFix" stdDeviation="5"/>
<feComposite in2="SourceAlpha" operator="in" result="effect1_backgroundBlur_6_5"/>
<feBlend mode="normal" in="SourceGraphic" in2="effect1_backgroundBlur_6_5" result="shape"/>
</filter>
<filter id="filter1_dd_6_5" x="2" y="5" width="262" height="201" filterUnits="userSpaceOnUse" color-interpolation-filters="sRGB">
<feFlood flood-opacity="0" result="BackgroundImageFix"/>
<feColorMatrix in="SourceAlpha" type="matrix" values="0 0 0 0 0 0 0 0 0 0 0 0 0 0 0 0 0 0 127 0" result="hardAlpha"/>
<feOffset dy="4"/>
<feGaussianBlur stdDeviation="2"/>
<feComposite in2="hardAlpha" operator="out"/>
<feColorMatrix type="matrix" values="0 0 0 0 0 0 0 0 0 0 0 0 0 0 0 0 0 0 0.25 0"/>
<feBlend mode="normal" in2="BackgroundImageFix" result="effect1_dropShadow_6_5"/>
<feColorMatrix in="SourceAlpha" type="matrix" values="0 0 0 0 0 0 0 0 0 0 0 0 0 0 0 0 0 0 127 0" result="hardAlpha"/>
<feOffset dy="4"/>
<feGaussianBlur stdDeviation="2"/>
<feComposite in2="hardAlpha" operator="out"/>
<feColorMatrix type="matrix" values="0 0 0 0 0 0 0 0 0 0 0 0 0 0 0 0 0 0 0.25 0"/>
<feBlend mode="normal" in2="effect1_dropShadow_6_5" result="effect2_dropShadow_6_5"/>
<feBlend mode="normal" in="SourceGraphic" in2="effect2_dropShadow_6_5" result="shape"/>
</filter>
<filter id="filter2_d_6_5" x="25.624" y="74.0293" width="220.967" height="61.874" filterUnits="userSpaceOnUse" color-interpolation-filters="sRGB">
<feFlood flood-opacity="0" result="BackgroundImageFix"/>
<feColorMatrix in="SourceAlpha" type="matrix" values="0 0 0 0 0 0 0 0 0 0 0 0 0 0 0 0 0 0 127 0" result="hardAlpha"/>
<feOffset dy="4"/>
<feGaussianBlur stdDeviation="2"/>
<feComposite in2="hardAlpha" operator="out"/>
<feColorMatrix type="matrix" values="0 0 0 0 0 0 0 0 0 0 0 0 0 0 0 0 0 0 0.25 0"/>
<feBlend mode="normal" in2="BackgroundImageFix" result="effect1_dropShadow_6_5"/>
<feBlend mode="normal" in="SourceGraphic" in2="effect1_dropShadow_6_5" result="shape"/>
</filter>
</defs>
</svg>
