<svg width="262" height="201" viewBox="0 0 262 201" fill="none" xmlns="http://www.w3.org/2000/svg">
<g filter="url(#filter0_dd_3_6)">
<path d="M11 7H251V186H11V7Z" fill="#6FA8DC"/>
<path d="M11 3.5C9.067 3.5 7.5 5.067 7.5 7V186C7.5 187.933 9.067 189.5 11 189.5H251C252.933 189.5 254.5 187.933 254.5 186V7C254.5 5.067 252.933 3.5 251 3.5H11Z" stroke="black" stroke-width="7" stroke-linejoin="round"/>
</g>
<g filter="url(#filter1_d_3_6)">
<path d="M27.624 69.0293H44.4258C62.4199 69.0293 71.417 77.7614 71.417 95.2256C71.417 113.075 62.4199 122 44.4258 122H27.624V69.0293ZM34.6338 115.713H44.2812C51.9655 115.713 57.2048 113.93 59.999 110.365C62.7933 106.776 64.1904 101.729 64.1904 95.2256C64.1904 88.8903 62.7933 83.9883 59.999 80.5195C57.2288 77.0508 51.9896 75.3164 44.2812 75.3164H34.6338V115.713ZM96.4932 122.903C90.8564 122.903 86.3278 121.145 82.9072 117.628C79.4867 114.087 77.7764 109.161 77.7764 102.85C77.7764 96.5866 79.4264 91.6846 82.7266 88.1436C86.0508 84.5785 90.3867 82.7959 95.7344 82.7959C101.202 82.7959 105.562 84.5423 108.814 88.0352C112.09 91.528 113.729 96.4661 113.729 102.85V104.476H84.8584C85.1475 108.908 86.3639 112.196 88.5078 114.34C90.6758 116.484 93.3376 117.556 96.4932 117.556C98.8779 117.556 101.022 116.953 102.925 115.749C104.852 114.521 105.864 112.786 105.96 110.546H113.006C112.476 114.496 110.681 117.544 107.622 119.688C104.587 121.831 100.877 122.903 96.4932 122.903ZM106.538 99.1279C105.984 95.4424 104.743 92.6842 102.816 90.8535C100.889 89.0228 98.5286 88.1074 95.7344 88.1074C93.0124 88.1074 90.6758 89.0228 88.7246 90.8535C86.7734 92.6602 85.5329 95.4183 85.0029 99.1279H106.538ZM145.67 111.919V103.428H141.009C131.132 103.428 126.194 106.114 126.194 111.485C126.194 113.437 126.917 114.942 128.362 116.002C129.808 117.038 131.759 117.556 134.216 117.556C136.456 117.556 138.624 117.05 140.72 116.038C142.815 115.026 144.465 113.653 145.67 111.919ZM145.67 118.062C142.201 121.289 137.733 122.903 132.265 122.903C128.459 122.903 125.327 121.88 122.87 119.832C120.413 117.76 119.185 115.099 119.185 111.847C119.185 102.886 126.905 98.4053 142.346 98.4053H145.67C145.67 95.6592 145.525 93.6719 145.236 92.4434C144.947 91.1908 144.14 90.1549 142.815 89.3359C141.491 88.5169 139.383 88.1074 136.492 88.1074C130.422 88.1074 127.29 90.2754 127.098 94.6113H120.305C120.811 86.7344 126.327 82.7959 136.854 82.7959C141.768 82.7959 145.598 83.7715 148.344 85.7227C151.09 87.6738 152.463 91.5039 152.463 97.2129V122H145.67V118.062ZM169.409 122H162.58V69.0293H169.409V122ZM195.786 122.903C190.149 122.903 185.621 121.145 182.2 117.628C178.78 114.087 177.069 109.161 177.069 102.85C177.069 96.5866 178.719 91.6846 182.02 88.1436C185.344 84.5785 189.68 82.7959 195.027 82.7959C200.495 82.7959 204.855 84.5423 208.107 88.0352C211.383 91.528 213.021 96.4661 213.021 102.85V104.476H184.151C184.44 108.908 185.657 112.196 187.801 114.34C189.969 116.484 192.631 117.556 195.786 117.556C198.171 117.556 200.315 116.953 202.218 115.749C204.145 114.521 205.157 112.786 205.253 110.546H212.299C211.769 114.496 209.974 117.544 206.915 119.688C203.88 121.831 200.17 122.903 195.786 122.903ZM205.831 99.1279C205.277 95.4424 204.036 92.6842 202.109 90.8535C200.182 89.0228 197.822 88.1074 195.027 88.1074C192.305 88.1074 189.969 89.0228 188.018 90.8535C186.066 92.6602 184.826 95.4183 184.296 99.1279H205.831ZM240.591 89.8779C239.627 89.5889 238.242 89.4443 236.436 89.4443C232.967 89.4443 229.992 91.263 227.511 94.9004V122H220.682V83.6631H227.511V89.0107C230.377 84.8675 233.701 82.7959 237.483 82.7959C238.447 82.7959 239.483 82.8923 240.591 83.085V89.8779Z" fill="black"/>
<path d="M27.624 69.0293V68.0293H26.624V69.0293H27.624ZM27.624 122H26.624V123H27.624V122ZM34.6338 115.713H33.6338V116.713H34.6338V115.713ZM59.999 110.365L60.7861 110.982L60.7881 110.98L59.999 110.365ZM59.999 80.5195L59.2176 81.1436L59.2203 81.1469L59.999 80.5195ZM34.6338 75.3164V74.3164H33.6338V75.3164H34.6338ZM27.624 70.0293H44.4258V68.0293H27.624V70.0293ZM44.4258 70.0293C53.2761 70.0293 59.7288 72.177 63.9727 76.296C68.2111 80.4096 70.417 86.6554 70.417 95.2256H72.417C72.417 86.3316 70.1243 79.4793 65.3657 74.8608C60.6125 70.2477 53.5696 68.0293 44.4258 68.0293V70.0293ZM70.417 95.2256C70.417 103.994 68.208 110.387 63.9649 114.596C59.7204 118.807 53.2707 121 44.4258 121V123C53.575 123 60.621 120.731 65.3734 116.016C70.1274 111.301 72.417 104.307 72.417 95.2256H70.417ZM44.4258 121H27.624V123H44.4258V121ZM28.624 122V69.0293H26.624V122H28.624ZM34.6338 116.713H44.2812V114.713H34.6338V116.713ZM44.2812 116.713C52.064 116.713 57.7028 114.916 60.7861 110.982L59.212 109.748C56.7067 112.945 51.867 114.713 44.2812 114.713V116.713ZM60.7881 110.98C63.7669 107.153 65.1904 101.859 65.1904 95.2256H63.1904C63.1904 101.6 61.8197 106.399 59.21 109.751L60.7881 110.98ZM65.1904 95.2256C65.1904 88.7564 63.7649 83.6004 60.7778 79.8922L59.2203 81.1469C61.8217 84.3762 63.1904 89.0242 63.1904 95.2256H65.1904ZM60.7804 79.8955C57.7178 76.0606 52.0782 74.3164 44.2812 74.3164V76.3164C51.901 76.3164 56.7399 78.041 59.2176 81.1436L60.7804 79.8955ZM44.2812 74.3164H34.6338V76.3164H44.2812V74.3164ZM33.6338 75.3164V115.713H35.6338V75.3164H33.6338ZM82.9072 117.628L82.188 118.323L82.1904 118.325L82.9072 117.628ZM82.7266 88.1436L81.9952 87.4616L81.995 87.4618L82.7266 88.1436ZM108.814 88.0352L108.083 88.7166L108.085 88.7193L108.814 88.0352ZM113.729 104.476V105.476H114.729V104.476H113.729ZM84.8584 104.476V103.476H83.7911L83.8605 104.541L84.8584 104.476ZM88.5078 114.34L87.8007 115.047L87.8047 115.051L88.5078 114.34ZM102.925 115.749L103.46 116.594L103.462 116.592L102.925 115.749ZM105.96 110.546V109.546H105.002L104.961 110.503L105.96 110.546ZM113.006 110.546L113.997 110.679L114.149 109.546H113.006V110.546ZM107.622 119.688L107.048 118.869L107.045 118.871L107.622 119.688ZM106.538 99.1279V100.128H107.7L107.527 98.9793L106.538 99.1279ZM88.7246 90.8535L89.404 91.5873L89.4088 91.5828L88.7246 90.8535ZM85.0029 99.1279L84.013 98.9865L83.8499 100.128H85.0029V99.1279ZM96.4932 121.903C91.0827 121.903 86.8279 120.225 83.6241 116.931L82.1904 118.325C85.8277 122.065 90.6302 123.903 96.4932 123.903V121.903ZM83.6265 116.933C80.4327 113.627 78.7764 108.978 78.7764 102.85H76.7764C76.7764 109.344 78.5406 114.547 82.188 118.323L83.6265 116.933ZM78.7764 102.85C78.7764 96.7628 80.3766 92.1318 83.4581 88.8253L81.995 87.4618C78.4763 91.2373 76.7764 96.4104 76.7764 102.85H78.7764ZM83.4579 88.8255C86.5735 85.4842 90.6341 83.7959 95.7344 83.7959V81.7959C90.1393 81.7959 85.528 83.6727 81.9952 87.4616L83.4579 88.8255ZM95.7344 83.7959C100.969 83.7959 105.048 85.4573 108.083 88.7166L109.546 87.3537C106.077 83.6273 101.436 81.7959 95.7344 81.7959V83.7959ZM108.085 88.7193C111.136 91.972 112.729 96.6337 112.729 102.85H114.729C114.729 96.2986 113.045 91.084 109.544 87.351L108.085 88.7193ZM112.729 102.85V104.476H114.729V102.85H112.729ZM113.729 103.476H84.8584V105.476H113.729V103.476ZM83.8605 104.541C84.1582 109.105 85.4205 112.667 87.8007 115.047L89.2149 113.633C87.3073 111.725 86.1367 108.711 85.8563 104.411L83.8605 104.541ZM87.8047 115.051C90.167 117.387 93.0846 118.556 96.4932 118.556V116.556C93.5906 116.556 91.1845 115.58 89.211 113.629L87.8047 115.051ZM96.4932 118.556C99.0556 118.556 101.387 117.906 103.46 116.594L102.39 114.904C100.657 116.001 98.7003 116.556 96.4932 116.556V118.556ZM103.462 116.592C105.658 115.192 106.848 113.163 106.959 110.589L104.961 110.503C104.879 112.41 104.045 113.849 102.387 114.906L103.462 116.592ZM105.96 111.546H113.006V109.546H105.96V111.546ZM112.015 110.413C111.519 114.107 109.862 116.897 107.048 118.869L108.196 120.506C111.501 118.191 113.433 114.885 113.997 110.679L112.015 110.413ZM107.045 118.871C104.207 120.875 100.709 121.903 96.4932 121.903V123.903C101.046 123.903 104.966 122.788 108.199 120.504L107.045 118.871ZM107.527 98.9793C106.953 95.1603 105.647 92.1637 103.505 90.1285L102.128 91.5785C103.84 93.2048 105.015 95.7245 105.549 99.2766L107.527 98.9793ZM103.505 90.1285C101.382 88.1115 98.7705 87.1074 95.7344 87.1074V89.1074C98.2868 89.1074 100.397 89.9341 102.128 91.5785L103.505 90.1285ZM95.7344 87.1074C92.7631 87.1074 90.1805 88.1163 88.0404 90.1243L89.4088 91.5828C91.1711 89.9293 93.2617 89.1074 95.7344 89.1074V87.1074ZM88.0452 90.1198C85.8684 92.1353 84.5623 95.141 84.013 98.9865L85.9929 99.2694C86.5034 95.6955 87.6784 93.185 89.404 91.5873L88.0452 90.1198ZM85.0029 100.128H106.538V98.1279H85.0029V100.128ZM145.67 111.919L146.491 112.489L146.67 112.232V111.919H145.67ZM145.67 103.428H146.67V102.428H145.67V103.428ZM128.362 116.002L127.771 116.808L127.78 116.815L128.362 116.002ZM145.67 118.062H146.67V115.765L144.989 117.329L145.67 118.062ZM122.87 119.832L122.226 120.597L122.23 120.6L122.87 119.832ZM145.67 98.4053V99.4053H146.67V98.4053H145.67ZM145.236 92.4434L144.262 92.6682L144.263 92.6724L145.236 92.4434ZM127.098 94.6113V95.6113H128.054L128.097 94.6557L127.098 94.6113ZM120.305 94.6113L119.307 94.5472L119.238 95.6113H120.305V94.6113ZM152.463 122V123H153.463V122H152.463ZM145.67 122H144.67V123H145.67V122ZM146.67 111.919V103.428H144.67V111.919H146.67ZM145.67 102.428H141.009V104.428H145.67V102.428ZM141.009 102.428C136.013 102.428 132.109 103.101 129.42 104.564C128.061 105.303 126.992 106.255 126.268 107.438C125.541 108.623 125.194 109.984 125.194 111.485H127.194C127.194 110.301 127.465 109.312 127.973 108.483C128.483 107.651 129.266 106.924 130.376 106.321C132.626 105.097 136.129 104.428 141.009 104.428V102.428ZM125.194 111.485C125.194 113.722 126.043 115.541 127.771 116.808L128.954 115.196C127.791 114.343 127.194 113.151 127.194 111.485H125.194ZM127.78 116.815C129.449 118.011 131.628 118.556 134.216 118.556V116.556C131.89 116.556 130.166 116.065 128.945 115.189L127.78 116.815ZM134.216 118.556C136.613 118.556 138.929 118.013 141.154 116.939L140.285 115.138C138.319 116.086 136.3 116.556 134.216 116.556V118.556ZM141.154 116.939C143.389 115.86 145.179 114.379 146.491 112.489L144.849 111.349C143.752 112.927 142.242 114.193 140.285 115.138L141.154 116.939ZM144.989 117.329C141.733 120.359 137.522 121.903 132.265 121.903V123.903C137.944 123.903 142.669 122.22 146.351 118.794L144.989 117.329ZM132.265 121.903C128.646 121.903 125.755 120.934 123.51 119.064L122.23 120.6C124.899 122.825 128.271 123.903 132.265 123.903V121.903ZM123.515 119.068C121.286 117.188 120.185 114.808 120.185 111.847H118.185C118.185 115.389 119.54 118.332 122.226 120.597L123.515 119.068ZM120.185 111.847C120.185 107.721 121.926 104.691 125.477 102.631C129.11 100.522 134.689 99.4053 142.346 99.4053V97.4053C134.561 97.4053 128.56 98.5289 124.473 100.901C120.303 103.321 118.185 107.011 118.185 111.847H120.185ZM142.346 99.4053H145.67V97.4053H142.346V99.4053ZM146.67 98.4053C146.67 95.6504 146.527 93.5636 146.21 92.2143L144.263 92.6724C144.524 93.7801 144.67 95.668 144.67 98.4053H146.67ZM146.211 92.2185C145.849 90.6524 144.842 89.413 143.341 88.4853L142.29 90.1865C143.439 90.8969 144.045 91.7292 144.262 92.6682L146.211 92.2185ZM143.341 88.4853C141.773 87.5161 139.433 87.1074 136.492 87.1074V89.1074C139.332 89.1074 141.208 89.5178 142.29 90.1865L143.341 88.4853ZM136.492 87.1074C133.365 87.1074 130.827 87.6612 129.022 88.9112C127.161 90.1996 126.207 92.1364 126.099 94.5669L128.097 94.6557C128.181 92.7503 128.889 91.4352 130.16 90.5556C131.486 89.6376 133.549 89.1074 136.492 89.1074V87.1074ZM127.098 93.6113H120.305V95.6113H127.098V93.6113ZM121.303 94.6754C121.54 90.9817 122.93 88.3285 125.402 86.5636C127.921 84.7657 131.691 83.7959 136.854 83.7959V81.7959C131.489 81.7959 127.238 82.7954 124.24 84.9359C121.196 87.1095 119.575 90.3641 119.307 94.5472L121.303 94.6754ZM136.854 83.7959C141.651 83.7959 145.249 84.7506 147.765 86.5378L148.923 84.9075C145.946 82.7924 141.884 81.7959 136.854 81.7959V83.7959ZM147.765 86.5378C150.106 88.2015 151.463 91.6044 151.463 97.2129H153.463C153.463 91.4034 152.074 87.1461 148.923 84.9075L147.765 86.5378ZM151.463 97.2129V122H153.463V97.2129H151.463ZM152.463 121H145.67V123H152.463V121ZM146.67 122V118.062H144.67V122H146.67ZM169.409 122V123H170.409V122H169.409ZM162.58 122H161.58V123H162.58V122ZM162.58 69.0293V68.0293H161.58V69.0293H162.58ZM169.409 69.0293H170.409V68.0293H169.409V69.0293ZM169.409 121H162.58V123H169.409V121ZM163.58 122V69.0293H161.58V122H163.58ZM162.58 70.0293H169.409V68.0293H162.58V70.0293ZM168.409 69.0293V122H170.409V69.0293H168.409ZM182.2 117.628L181.481 118.323L181.483 118.325L182.2 117.628ZM182.02 88.1436L181.288 87.4616L181.288 87.4618L182.02 88.1436ZM208.107 88.0352L207.376 88.7166L207.378 88.7193L208.107 88.0352ZM213.021 104.476V105.476H214.021V104.476H213.021ZM184.151 104.476V103.476H183.084L183.153 104.541L184.151 104.476ZM187.801 114.34L187.094 115.047L187.098 115.051L187.801 114.34ZM202.218 115.749L202.753 116.594L202.755 116.592L202.218 115.749ZM205.253 110.546V109.546H204.295L204.254 110.503L205.253 110.546ZM212.299 110.546L213.29 110.679L213.442 109.546H212.299V110.546ZM206.915 119.688L206.341 118.869L206.338 118.871L206.915 119.688ZM205.831 99.1279V100.128H206.993L206.82 98.9793L205.831 99.1279ZM188.018 90.8535L188.697 91.5873L188.702 91.5828L188.018 90.8535ZM184.296 99.1279L183.306 98.9865L183.143 100.128H184.296V99.1279ZM195.786 121.903C190.376 121.903 186.121 120.225 182.917 116.931L181.483 118.325C185.121 122.065 189.923 123.903 195.786 123.903V121.903ZM182.919 116.933C179.726 113.627 178.069 108.978 178.069 102.85H176.069C176.069 109.344 177.834 114.547 181.481 118.323L182.919 116.933ZM178.069 102.85C178.069 96.7628 179.67 92.1318 182.751 88.8253L181.288 87.4618C177.769 91.2373 176.069 96.4104 176.069 102.85H178.069ZM182.751 88.8255C185.866 85.4842 189.927 83.7959 195.027 83.7959V81.7959C189.432 81.7959 184.821 83.6727 181.288 87.4616L182.751 88.8255ZM195.027 83.7959C200.262 83.7959 204.341 85.4573 207.376 88.7166L208.839 87.3537C205.37 83.6273 200.729 81.7959 195.027 81.7959V83.7959ZM207.378 88.7193C210.429 91.972 212.021 96.6337 212.021 102.85H214.021C214.021 96.2986 212.338 91.084 208.837 87.351L207.378 88.7193ZM212.021 102.85V104.476H214.021V102.85H212.021ZM213.021 103.476H184.151V105.476H213.021V103.476ZM183.153 104.541C183.451 109.105 184.714 112.667 187.094 115.047L188.508 113.633C186.6 111.725 185.43 108.711 185.149 104.411L183.153 104.541ZM187.098 115.051C189.46 117.387 192.378 118.556 195.786 118.556V116.556C192.884 116.556 190.478 115.58 188.504 113.629L187.098 115.051ZM195.786 118.556C198.349 118.556 200.68 117.906 202.753 116.594L201.683 114.904C199.95 116.001 197.993 116.556 195.786 116.556V118.556ZM202.755 116.592C204.951 115.192 206.141 113.163 206.252 110.589L204.254 110.503C204.172 112.41 203.338 113.849 201.68 114.906L202.755 116.592ZM205.253 111.546H212.299V109.546H205.253V111.546ZM211.308 110.413C210.812 114.107 209.155 116.897 206.341 118.869L207.489 120.506C210.794 118.191 212.726 114.885 213.29 110.679L211.308 110.413ZM206.338 118.871C203.5 120.875 200.002 121.903 195.786 121.903V123.903C200.339 123.903 204.259 122.788 207.492 120.504L206.338 118.871ZM206.82 98.9793C206.246 95.1603 204.94 92.1637 202.798 90.1285L201.421 91.5785C203.133 93.2048 204.308 95.7245 204.842 99.2766L206.82 98.9793ZM202.798 90.1285C200.675 88.1115 198.063 87.1074 195.027 87.1074V89.1074C197.58 89.1074 199.69 89.9341 201.421 91.5785L202.798 90.1285ZM195.027 87.1074C192.056 87.1074 189.473 88.1163 187.333 90.1243L188.702 91.5828C190.464 89.9293 192.555 89.1074 195.027 89.1074V87.1074ZM187.338 90.1198C185.161 92.1353 183.855 95.141 183.306 98.9865L185.286 99.2694C185.796 95.6955 186.971 93.185 188.697 91.5873L187.338 90.1198ZM184.296 100.128H205.831V98.1279H184.296V100.128ZM240.591 89.8779L240.303 90.8358L241.591 91.222V89.8779H240.591ZM227.511 94.9004L226.685 94.3369L226.511 94.5918V94.9004H227.511ZM227.511 122V123H228.511V122H227.511ZM220.682 122H219.682V123H220.682V122ZM220.682 83.6631V82.6631H219.682V83.6631H220.682ZM227.511 83.6631H228.511V82.6631H227.511V83.6631ZM227.511 89.0107H226.511V92.2137L228.333 89.5797L227.511 89.0107ZM240.591 83.085H241.591V82.2439L240.762 82.0997L240.591 83.085ZM240.878 88.9201C239.775 88.5892 238.275 88.4443 236.436 88.4443V90.4443C238.209 90.4443 239.479 90.5885 240.303 90.8358L240.878 88.9201ZM236.436 88.4443C232.547 88.4443 229.296 90.509 226.685 94.3369L228.337 95.4639C230.688 92.017 233.386 90.4443 236.436 90.4443V88.4443ZM226.511 94.9004V122H228.511V94.9004H226.511ZM227.511 121H220.682V123H227.511V121ZM221.682 122V83.6631H219.682V122H221.682ZM220.682 84.6631H227.511V82.6631H220.682V84.6631ZM226.511 83.6631V89.0107H228.511V83.6631H226.511ZM228.333 89.5797C231.081 85.6077 234.134 83.7959 237.483 83.7959V81.7959C233.269 81.7959 229.673 84.1273 226.688 88.4418L228.333 89.5797ZM237.483 83.7959C238.381 83.7959 239.359 83.8857 240.419 84.0702L240.762 82.0997C239.607 81.8988 238.513 81.7959 237.483 81.7959V83.7959ZM239.591 83.085V89.8779H241.591V83.085H239.591Z" fill="black"/>
</g>
<defs>
<filter id="filter0_dd_3_6" x="0" y="0" width="262" height="201" filterUnits="userSpaceOnUse" color-interpolation-filters="sRGB">
<feFlood flood-opacity="0" result="BackgroundImageFix"/>
<feColorMatrix in="SourceAlpha" type="matrix" values="0 0 0 0 0 0 0 0 0 0 0 0 0 0 0 0 0 0 127 0" result="hardAlpha"/>
<feOffset dy="4"/>
<feGaussianBlur stdDeviation="2"/>
<feComposite in2="hardAlpha" operator="out"/>
<feColorMatrix type="matrix" values="0 0 0 0 0 0 0 0 0 0 0 0 0 0 0 0 0 0 0.25 0"/>
<feBlend mode="normal" in2="BackgroundImageFix" result="effect1_dropShadow_3_6"/>
<feColorMatrix in="SourceAlpha" type="matrix" values="0 0 0 0 0 0 0 0 0 0 0 0 0 0 0 0 0 0 127 0" result="hardAlpha"/>
<feOffset dy="4"/>
<feGaussianBlur stdDeviation="2"/>
<feComposite in2="hardAlpha" operator="out"/>
<feColorMatrix type="matrix" values="0 0 0 0 0 0 0 0 0 0 0 0 0 0 0 0 0 0 0.25 0"/>
<feBlend mode="normal" in2="effect1_dropShadow_3_6" result="effect2_dropShadow_3_6"/>
<feBlend mode="normal" in="SourceGraphic" in2="effect2_dropShadow_3_6" result="shape"/>
</filter>
<filter id="filter1_d_3_6" x="23.624" y="69.0293" width="220.967" height="61.874" filterUnits="userSpaceOnUse" color-interpolation-filters="sRGB">
<feFlood flood-opacity="0" result="BackgroundImageFix"/>
<feColorMatrix in="SourceAlpha" type="matrix" values="0 0 0 0 0 0 0 0 0 0 0 0 0 0 0 0 0 0 127 0" result="hardAlpha"/>
<feOffset dy="4"/>
<feGaussianBlur stdDeviation="2"/>
<feComposite in2="hardAlpha" operator="out"/>
<feColorMatrix type="matrix" values="0 0 0 0 0 0 0 0 0 0 0 0 0 0 0 0 0 0 0.25 0"/>
<feBlend mode="normal" in2="BackgroundImageFix" result="effect1_dropShadow_3_6"/>
<feBlend mode="normal" in="SourceGraphic" in2="effect1_dropShadow_3_6" result="shape"/>
</filter>
</defs>
</svg>
