<svg width="742" height="262" viewBox="0 0 742 262" fill="none" xmlns="http://www.w3.org/2000/svg">
<g filter="url(#filter0_dd_2_8)">
<path d="M11 7H731V247H11V7Z" fill="#6FA8DC"/>
<path d="M11 3.5C9.067 3.5 7.5 5.067 7.5 7V247C7.5 248.933 9.067 250.5 11 250.5H731C732.933 250.5 734.5 248.933 734.5 247V7C734.5 5.067 732.933 3.5 731 3.5H11Z" stroke="black" stroke-width="7" stroke-linejoin="round"/>
</g>
<g filter="url(#filter1_d_2_8)">
<path d="M373.023 153H365.978V128.068H338.444V153H331.435V100.029H338.444V121.781H365.978V100.029H373.023V153ZM390.837 153H384.008V114.663H390.837V153ZM390.837 107.4H384.008V100.029H390.837V107.4ZM415.805 153.072C414.311 153.361 412.685 153.506 410.927 153.506C408.132 153.506 406.085 153.012 404.784 152.024C403.483 151.013 402.676 149.724 402.363 148.158C402.05 146.592 401.894 144.461 401.894 141.763V120.011H397.16V114.663H401.894V105.124H408.687V114.663H414.901V120.011H408.687V142.124C408.687 144.75 409.012 146.424 409.662 147.146C410.337 147.845 411.252 148.194 412.408 148.194C413.589 148.194 414.721 148.098 415.805 147.905V153.072Z" fill="black"/>
<path d="M373.023 153V154H374.023V153H373.023ZM365.978 153H364.978V154H365.978V153ZM365.978 128.068H366.978V127.068H365.978V128.068ZM338.444 128.068V127.068H337.444V128.068H338.444ZM338.444 153V154H339.444V153H338.444ZM331.435 153H330.435V154H331.435V153ZM331.435 100.029V99.0293H330.435V100.029H331.435ZM338.444 100.029H339.444V99.0293H338.444V100.029ZM338.444 121.781H337.444V122.781H338.444V121.781ZM365.978 121.781V122.781H366.978V121.781H365.978ZM365.978 100.029V99.0293H364.978V100.029H365.978ZM373.023 100.029H374.023V99.0293H373.023V100.029ZM373.023 152H365.978V154H373.023V152ZM366.978 153V128.068H364.978V153H366.978ZM365.978 127.068H338.444V129.068H365.978V127.068ZM337.444 128.068V153H339.444V128.068H337.444ZM338.444 152H331.435V154H338.444V152ZM332.435 153V100.029H330.435V153H332.435ZM331.435 101.029H338.444V99.0293H331.435V101.029ZM337.444 100.029V121.781H339.444V100.029H337.444ZM338.444 122.781H365.978V120.781H338.444V122.781ZM366.978 121.781V100.029H364.978V121.781H366.978ZM365.978 101.029H373.023V99.0293H365.978V101.029ZM372.023 100.029V153H374.023V100.029H372.023ZM390.837 153V154H391.837V153H390.837ZM384.008 153H383.008V154H384.008V153ZM384.008 114.663V113.663H383.008V114.663H384.008ZM390.837 114.663H391.837V113.663H390.837V114.663ZM390.837 107.4V108.4H391.837V107.4H390.837ZM384.008 107.4H383.008V108.4H384.008V107.4ZM384.008 100.029V99.0293H383.008V100.029H384.008ZM390.837 100.029H391.837V99.0293H390.837V100.029ZM390.837 152H384.008V154H390.837V152ZM385.008 153V114.663H383.008V153H385.008ZM384.008 115.663H390.837V113.663H384.008V115.663ZM389.837 114.663V153H391.837V114.663H389.837ZM390.837 106.4H384.008V108.4H390.837V106.4ZM385.008 107.4V100.029H383.008V107.4H385.008ZM384.008 101.029H390.837V99.0293H384.008V101.029ZM389.837 100.029V107.4H391.837V100.029H389.837ZM415.805 153.072L415.995 154.054L416.805 153.897V153.072H415.805ZM404.784 152.024L404.17 152.814L404.179 152.821L404.784 152.024ZM402.363 148.158L401.383 148.354L402.363 148.158ZM401.894 120.011H402.894V119.011H401.894V120.011ZM397.16 120.011H396.16V121.011H397.16V120.011ZM397.16 114.663V113.663H396.16V114.663H397.16ZM401.894 114.663V115.663H402.894V114.663H401.894ZM401.894 105.124V104.124H400.894V105.124H401.894ZM408.687 105.124H409.687V104.124H408.687V105.124ZM408.687 114.663H407.687V115.663H408.687V114.663ZM414.901 114.663H415.901V113.663H414.901V114.663ZM414.901 120.011V121.011H415.901V120.011H414.901ZM408.687 120.011V119.011H407.687V120.011H408.687ZM409.662 147.146L408.919 147.815L408.931 147.828L408.943 147.841L409.662 147.146ZM415.805 147.905H416.805V146.712L415.63 146.921L415.805 147.905ZM415.615 152.09C414.193 152.366 412.631 152.506 410.927 152.506V154.506C412.739 154.506 414.43 154.357 415.995 154.054L415.615 152.09ZM410.927 152.506C408.211 152.506 406.43 152.019 405.389 151.228L404.179 152.821C405.74 154.006 408.054 154.506 410.927 154.506V152.506ZM405.398 151.235C404.28 150.366 403.608 149.284 403.344 147.962L401.383 148.354C401.745 150.164 402.687 151.66 404.17 152.814L405.398 151.235ZM403.344 147.962C403.049 146.49 402.894 144.433 402.894 141.763H400.894C400.894 144.488 401.051 146.695 401.383 148.354L403.344 147.962ZM402.894 141.763V120.011H400.894V141.763H402.894ZM401.894 119.011H397.16V121.011H401.894V119.011ZM398.16 120.011V114.663H396.16V120.011H398.16ZM397.16 115.663H401.894V113.663H397.16V115.663ZM402.894 114.663V105.124H400.894V114.663H402.894ZM401.894 106.124H408.687V104.124H401.894V106.124ZM407.687 105.124V114.663H409.687V105.124H407.687ZM408.687 115.663H414.901V113.663H408.687V115.663ZM413.901 114.663V120.011H415.901V114.663H413.901ZM414.901 119.011H408.687V121.011H414.901V119.011ZM407.687 120.011V142.124H409.687V120.011H407.687ZM407.687 142.124C407.687 143.471 407.769 144.616 407.949 145.54C408.123 146.438 408.412 147.252 408.919 147.815L410.405 146.478C410.262 146.318 410.063 145.934 409.912 145.158C409.766 144.408 409.687 143.403 409.687 142.124H407.687ZM408.943 147.841C409.841 148.772 411.036 149.194 412.408 149.194V147.194C411.467 147.194 410.832 146.918 410.382 146.452L408.943 147.841ZM412.408 149.194C413.643 149.194 414.834 149.094 415.98 148.89L415.63 146.921C414.607 147.102 413.534 147.194 412.408 147.194V149.194ZM414.805 147.905V153.072H416.805V147.905H414.805Z" fill="black"/>
</g>
<defs>
<filter id="filter0_dd_2_8" x="0" y="0" width="742" height="262" filterUnits="userSpaceOnUse" color-interpolation-filters="sRGB">
<feFlood flood-opacity="0" result="BackgroundImageFix"/>
<feColorMatrix in="SourceAlpha" type="matrix" values="0 0 0 0 0 0 0 0 0 0 0 0 0 0 0 0 0 0 127 0" result="hardAlpha"/>
<feOffset dy="4"/>
<feGaussianBlur stdDeviation="2"/>
<feComposite in2="hardAlpha" operator="out"/>
<feColorMatrix type="matrix" values="0 0 0 0 0 0 0 0 0 0 0 0 0 0 0 0 0 0 0.25 0"/>
<feBlend mode="normal" in2="BackgroundImageFix" result="effect1_dropShadow_2_8"/>
<feColorMatrix in="SourceAlpha" type="matrix" values="0 0 0 0 0 0 0 0 0 0 0 0 0 0 0 0 0 0 127 0" result="hardAlpha"/>
<feOffset dy="4"/>
<feGaussianBlur stdDeviation="2"/>
<feComposite in2="hardAlpha" operator="out"/>
<feColorMatrix type="matrix" values="0 0 0 0 0 0 0 0 0 0 0 0 0 0 0 0 0 0 0.25 0"/>
<feBlend mode="normal" in2="effect1_dropShadow_2_8" result="effect2_dropShadow_2_8"/>
<feBlend mode="normal" in="SourceGraphic" in2="effect2_dropShadow_2_8" result="shape"/>
</filter>
<filter id="filter1_d_2_8" x="327.435" y="100.029" width="92.3701" height="61.4766" filterUnits="userSpaceOnUse" color-interpolation-filters="sRGB">
<feFlood flood-opacity="0" result="BackgroundImageFix"/>
<feColorMatrix in="SourceAlpha" type="matrix" values="0 0 0 0 0 0 0 0 0 0 0 0 0 0 0 0 0 0 127 0" result="hardAlpha"/>
<feOffset dy="4"/>
<feGaussianBlur stdDeviation="2"/>
<feComposite in2="hardAlpha" operator="out"/>
<feColorMatrix type="matrix" values="0 0 0 0 0 0 0 0 0 0 0 0 0 0 0 0 0 0 0.25 0"/>
<feBlend mode="normal" in2="BackgroundImageFix" result="effect1_dropShadow_2_8"/>
<feBlend mode="normal" in="SourceGraphic" in2="effect1_dropShadow_2_8" result="shape"/>
</filter>
</defs>
</svg>
