<svg width="745" height="267" viewBox="0 0 745 267" fill="none" xmlns="http://www.w3.org/2000/svg">
<rect width="745" height="265" fill="#FAFF00"/>
<g filter="url(#filter0_dd_3_3)">
<path d="M13 12H733V252H13V12Z" fill="#6FA8DC"/>
<path d="M13 8.5C11.067 8.5 9.5 10.067 9.5 12V252C9.5 253.933 11.067 255.5 13 255.5H733C734.933 255.5 736.5 253.933 736.5 252V12C736.5 10.067 734.933 8.5 733 8.5H13Z" stroke="black" stroke-width="7" stroke-linejoin="round"/>
</g>
<g filter="url(#filter1_d_3_3)">
<path d="M375.023 158H367.978V133.068H340.444V158H333.435V105.029H340.444V126.781H367.978V105.029H375.023V158ZM392.837 158H386.008V119.663H392.837V158ZM392.837 112.4H386.008V105.029H392.837V112.4ZM417.805 158.072C416.311 158.361 414.685 158.506 412.927 158.506C410.132 158.506 408.085 158.012 406.784 157.024C405.483 156.013 404.676 154.724 404.363 153.158C404.05 151.592 403.894 149.461 403.894 146.763V125.011H399.16V119.663H403.894V110.124H410.687V119.663H416.901V125.011H410.687V147.124C410.687 149.75 411.012 151.424 411.662 152.146C412.337 152.845 413.252 153.194 414.408 153.194C415.589 153.194 416.721 153.098 417.805 152.905V158.072Z" fill="black"/>
<path d="M375.023 158V159H376.023V158H375.023ZM367.978 158H366.978V159H367.978V158ZM367.978 133.068H368.978V132.068H367.978V133.068ZM340.444 133.068V132.068H339.444V133.068H340.444ZM340.444 158V159H341.444V158H340.444ZM333.435 158H332.435V159H333.435V158ZM333.435 105.029V104.029H332.435V105.029H333.435ZM340.444 105.029H341.444V104.029H340.444V105.029ZM340.444 126.781H339.444V127.781H340.444V126.781ZM367.978 126.781V127.781H368.978V126.781H367.978ZM367.978 105.029V104.029H366.978V105.029H367.978ZM375.023 105.029H376.023V104.029H375.023V105.029ZM375.023 157H367.978V159H375.023V157ZM368.978 158V133.068H366.978V158H368.978ZM367.978 132.068H340.444V134.068H367.978V132.068ZM339.444 133.068V158H341.444V133.068H339.444ZM340.444 157H333.435V159H340.444V157ZM334.435 158V105.029H332.435V158H334.435ZM333.435 106.029H340.444V104.029H333.435V106.029ZM339.444 105.029V126.781H341.444V105.029H339.444ZM340.444 127.781H367.978V125.781H340.444V127.781ZM368.978 126.781V105.029H366.978V126.781H368.978ZM367.978 106.029H375.023V104.029H367.978V106.029ZM374.023 105.029V158H376.023V105.029H374.023ZM392.837 158V159H393.837V158H392.837ZM386.008 158H385.008V159H386.008V158ZM386.008 119.663V118.663H385.008V119.663H386.008ZM392.837 119.663H393.837V118.663H392.837V119.663ZM392.837 112.4V113.4H393.837V112.4H392.837ZM386.008 112.4H385.008V113.4H386.008V112.4ZM386.008 105.029V104.029H385.008V105.029H386.008ZM392.837 105.029H393.837V104.029H392.837V105.029ZM392.837 157H386.008V159H392.837V157ZM387.008 158V119.663H385.008V158H387.008ZM386.008 120.663H392.837V118.663H386.008V120.663ZM391.837 119.663V158H393.837V119.663H391.837ZM392.837 111.4H386.008V113.4H392.837V111.4ZM387.008 112.4V105.029H385.008V112.4H387.008ZM386.008 106.029H392.837V104.029H386.008V106.029ZM391.837 105.029V112.4H393.837V105.029H391.837ZM417.805 158.072L417.995 159.054L418.805 158.897V158.072H417.805ZM406.784 157.024L406.17 157.814L406.179 157.821L406.784 157.024ZM404.363 153.158L403.383 153.354L404.363 153.158ZM403.894 125.011H404.894V124.011H403.894V125.011ZM399.16 125.011H398.16V126.011H399.16V125.011ZM399.16 119.663V118.663H398.16V119.663H399.16ZM403.894 119.663V120.663H404.894V119.663H403.894ZM403.894 110.124V109.124H402.894V110.124H403.894ZM410.687 110.124H411.687V109.124H410.687V110.124ZM410.687 119.663H409.687V120.663H410.687V119.663ZM416.901 119.663H417.901V118.663H416.901V119.663ZM416.901 125.011V126.011H417.901V125.011H416.901ZM410.687 125.011V124.011H409.687V125.011H410.687ZM411.662 152.146L410.919 152.815L410.931 152.828L410.943 152.841L411.662 152.146ZM417.805 152.905H418.805V151.712L417.63 151.921L417.805 152.905ZM417.615 157.09C416.193 157.366 414.631 157.506 412.927 157.506V159.506C414.739 159.506 416.43 159.357 417.995 159.054L417.615 157.09ZM412.927 157.506C410.211 157.506 408.43 157.019 407.389 156.228L406.179 157.821C407.74 159.006 410.054 159.506 412.927 159.506V157.506ZM407.398 156.235C406.28 155.366 405.608 154.284 405.344 152.962L403.383 153.354C403.745 155.164 404.687 156.66 406.17 157.814L407.398 156.235ZM405.344 152.962C405.049 151.49 404.894 149.433 404.894 146.763H402.894C402.894 149.488 403.051 151.695 403.383 153.354L405.344 152.962ZM404.894 146.763V125.011H402.894V146.763H404.894ZM403.894 124.011H399.16V126.011H403.894V124.011ZM400.16 125.011V119.663H398.16V125.011H400.16ZM399.16 120.663H403.894V118.663H399.16V120.663ZM404.894 119.663V110.124H402.894V119.663H404.894ZM403.894 111.124H410.687V109.124H403.894V111.124ZM409.687 110.124V119.663H411.687V110.124H409.687ZM410.687 120.663H416.901V118.663H410.687V120.663ZM415.901 119.663V125.011H417.901V119.663H415.901ZM416.901 124.011H410.687V126.011H416.901V124.011ZM409.687 125.011V147.124H411.687V125.011H409.687ZM409.687 147.124C409.687 148.471 409.769 149.616 409.949 150.54C410.123 151.438 410.412 152.252 410.919 152.815L412.405 151.478C412.262 151.318 412.063 150.934 411.912 150.158C411.766 149.408 411.687 148.403 411.687 147.124H409.687ZM410.943 152.841C411.841 153.772 413.036 154.194 414.408 154.194V152.194C413.467 152.194 412.832 151.918 412.382 151.452L410.943 152.841ZM414.408 154.194C415.643 154.194 416.834 154.094 417.98 153.89L417.63 151.921C416.607 152.102 415.534 152.194 414.408 152.194V154.194ZM416.805 152.905V158.072H418.805V152.905H416.805Z" fill="black"/>
</g>
<defs>
<filter id="filter0_dd_3_3" x="2" y="5" width="742" height="262" filterUnits="userSpaceOnUse" color-interpolation-filters="sRGB">
<feFlood flood-opacity="0" result="BackgroundImageFix"/>
<feColorMatrix in="SourceAlpha" type="matrix" values="0 0 0 0 0 0 0 0 0 0 0 0 0 0 0 0 0 0 127 0" result="hardAlpha"/>
<feOffset dy="4"/>
<feGaussianBlur stdDeviation="2"/>
<feComposite in2="hardAlpha" operator="out"/>
<feColorMatrix type="matrix" values="0 0 0 0 0 0 0 0 0 0 0 0 0 0 0 0 0 0 0.25 0"/>
<feBlend mode="normal" in2="BackgroundImageFix" result="effect1_dropShadow_3_3"/>
<feColorMatrix in="SourceAlpha" type="matrix" values="0 0 0 0 0 0 0 0 0 0 0 0 0 0 0 0 0 0 127 0" result="hardAlpha"/>
<feOffset dy="4"/>
<feGaussianBlur stdDeviation="2"/>
<feComposite in2="hardAlpha" operator="out"/>
<feColorMatrix type="matrix" values="0 0 0 0 0 0 0 0 0 0 0 0 0 0 0 0 0 0 0.25 0"/>
<feBlend mode="normal" in2="effect1_dropShadow_3_3" result="effect2_dropShadow_3_3"/>
<feBlend mode="normal" in="SourceGraphic" in2="effect2_dropShadow_3_3" result="shape"/>
</filter>
<filter id="filter1_d_3_3" x="329.435" y="105.029" width="92.3701" height="61.4766" filterUnits="userSpaceOnUse" color-interpolation-filters="sRGB">
<feFlood flood-opacity="0" result="BackgroundImageFix"/>
<feColorMatrix in="SourceAlpha" type="matrix" values="0 0 0 0 0 0 0 0 0 0 0 0 0 0 0 0 0 0 127 0" result="hardAlpha"/>
<feOffset dy="4"/>
<feGaussianBlur stdDeviation="2"/>
<feComposite in2="hardAlpha" operator="out"/>
<feColorMatrix type="matrix" values="0 0 0 0 0 0 0 0 0 0 0 0 0 0 0 0 0 0 0.25 0"/>
<feBlend mode="normal" in2="BackgroundImageFix" result="effect1_dropShadow_3_3"/>
<feBlend mode="normal" in="SourceGraphic" in2="effect1_dropShadow_3_3" result="shape"/>
</filter>
</defs>
</svg>
