<svg width="262" height="201" viewBox="0 0 262 201" fill="none" xmlns="http://www.w3.org/2000/svg">
<g filter="url(#filter0_dd_3_6)">
<path d="M11 7H251V186H11V7Z" fill="#6FA8DC"/>
<path d="M11 3.5C9.067 3.5 7.5 5.067 7.5 7V186C7.5 187.933 9.067 189.5 11 189.5H251C252.933 189.5 254.5 187.933 254.5 186V7C254.5 5.067 252.933 3.5 251 3.5H11Z" stroke="black" stroke-width="7" stroke-linejoin="round"/>
</g>
<g filter="url(#filter1_d_3_6)">
<path d="M31.7793 69.0293H51.5439C55.8799 69.0293 59.5052 69.4388 62.4199 70.2578C65.3587 71.0527 67.6833 72.7992 69.3936 75.4971C71.1038 78.1709 71.959 81.1699 71.959 84.4941C71.959 89.8418 70.2607 93.9007 66.8643 96.6709C63.4678 99.4411 58.5537 100.826 52.1221 100.826H38.7891V122H31.7793V69.0293ZM38.7891 94.5391H52.1943C56.6989 94.5391 59.9027 93.696 61.8057 92.0098C63.7327 90.3236 64.6963 87.8906 64.6963 84.7109C64.6963 82.5911 64.1663 80.7122 63.1064 79.0742C62.0465 77.4362 60.6976 76.4004 59.0596 75.9668C57.4456 75.5332 55.109 75.3164 52.0498 75.3164H38.7891V94.5391ZM87.0625 122H80.2334V69.0293H87.0625V122ZM121.425 111.919V103.428H116.764C106.887 103.428 101.949 106.114 101.949 111.485C101.949 113.437 102.672 114.942 104.117 116.002C105.562 117.038 107.514 117.556 109.971 117.556C112.211 117.556 114.379 117.05 116.475 116.038C118.57 115.026 120.22 113.653 121.425 111.919ZM121.425 118.062C117.956 121.289 113.488 122.903 108.02 122.903C104.214 122.903 101.082 121.88 98.625 119.832C96.168 117.76 94.9395 115.099 94.9395 111.847C94.9395 102.886 102.66 98.4053 118.101 98.4053H121.425C121.425 95.6592 121.28 93.6719 120.991 92.4434C120.702 91.1908 119.895 90.1549 118.57 89.3359C117.245 88.5169 115.138 88.1074 112.247 88.1074C106.177 88.1074 103.045 90.2754 102.853 94.6113H96.0596C96.5654 86.7344 102.082 82.7959 112.608 82.7959C117.522 82.7959 121.353 83.7715 124.099 85.7227C126.845 87.6738 128.218 91.5039 128.218 97.2129V122H121.425V118.062ZM140.503 131.25C143.875 131.25 146.633 128.167 148.777 122L134.288 83.6631H141.659L151.812 113.653L161.966 83.6631H169.337L154.848 122C153.451 125.661 152.258 128.48 151.271 130.455C150.307 132.454 149.03 134.129 147.44 135.478C145.875 136.851 143.948 137.537 141.659 137.537C139.949 137.537 138.479 137.368 137.251 137.031V130.744C138.311 131.081 139.395 131.25 140.503 131.25ZM191.631 122.903C185.994 122.903 181.465 121.145 178.045 117.628C174.624 114.087 172.914 109.161 172.914 102.85C172.914 96.5866 174.564 91.6846 177.864 88.1436C181.188 84.5785 185.524 82.7959 190.872 82.7959C196.34 82.7959 200.7 84.5423 203.952 88.0352C207.228 91.528 208.866 96.4661 208.866 102.85V104.476H179.996C180.285 108.908 181.502 112.196 183.646 114.34C185.813 116.484 188.475 117.556 191.631 117.556C194.016 117.556 196.16 116.953 198.062 115.749C199.99 114.521 201.001 112.786 201.098 110.546H208.144C207.614 114.496 205.819 117.544 202.76 119.688C199.725 121.831 196.015 122.903 191.631 122.903ZM201.676 99.1279C201.122 95.4424 199.881 92.6842 197.954 90.8535C196.027 89.0228 193.666 88.1074 190.872 88.1074C188.15 88.1074 185.813 89.0228 183.862 90.8535C181.911 92.6602 180.671 95.4183 180.141 99.1279H201.676ZM236.436 89.8779C235.472 89.5889 234.087 89.4443 232.28 89.4443C228.812 89.4443 225.837 91.263 223.355 94.9004V122H216.526V83.6631H223.355V89.0107C226.222 84.8675 229.546 82.7959 233.328 82.7959C234.292 82.7959 235.327 82.8923 236.436 83.085V89.8779Z" fill="black"/>
<path d="M31.7793 69.0293V68.0293H30.7793V69.0293H31.7793ZM62.4199 70.2578L62.1494 71.2206L62.1588 71.2231L62.4199 70.2578ZM69.3936 75.4971L68.549 76.0325L68.5511 76.0359L69.3936 75.4971ZM38.7891 100.826V99.8262H37.7891V100.826H38.7891ZM38.7891 122V123H39.7891V122H38.7891ZM31.7793 122H30.7793V123H31.7793V122ZM38.7891 94.5391H37.7891V95.5391H38.7891V94.5391ZM61.8057 92.0098L61.1471 91.2572L61.1425 91.2613L61.8057 92.0098ZM63.1064 79.0742L63.946 78.531L63.1064 79.0742ZM59.0596 75.9668L58.8001 76.9326L58.8037 76.9335L59.0596 75.9668ZM38.7891 75.3164V74.3164H37.7891V75.3164H38.7891ZM31.7793 70.0293H51.5439V68.0293H31.7793V70.0293ZM51.5439 70.0293C55.8243 70.0293 59.3516 70.4344 62.1494 71.2205L62.6904 69.2951C59.6588 68.4432 55.9355 68.0293 51.5439 68.0293V70.0293ZM62.1588 71.2231C64.8435 71.9493 66.9653 73.5344 68.549 76.0325L70.2381 74.9617C68.4012 72.0639 65.874 70.1562 62.681 69.2925L62.1588 71.2231ZM68.5511 76.0359C70.1535 78.541 70.959 81.3514 70.959 84.4941H72.959C72.959 80.9884 72.0542 77.8008 70.236 74.9582L68.5511 76.0359ZM70.959 84.4941C70.959 89.6142 69.3447 93.3574 66.2322 95.896L67.4963 97.4458C71.1768 94.444 72.959 90.0694 72.959 84.4941H70.959ZM66.2322 95.896C63.081 98.4661 58.4277 99.8262 52.1221 99.8262V101.826C58.6797 101.826 63.8545 100.416 67.4963 97.4458L66.2322 95.896ZM52.1221 99.8262H38.7891V101.826H52.1221V99.8262ZM37.7891 100.826V122H39.7891V100.826H37.7891ZM38.7891 121H31.7793V123H38.7891V121ZM32.7793 122V69.0293H30.7793V122H32.7793ZM38.7891 95.5391H52.1943V93.5391H38.7891V95.5391ZM52.1943 95.5391C56.7727 95.5391 60.2864 94.692 62.4689 92.7582L61.1425 91.2613C59.5189 92.6999 56.6251 93.5391 52.1943 93.5391V95.5391ZM62.4642 92.7623C64.6592 90.8417 65.6963 88.1036 65.6963 84.7109H63.6963C63.6963 87.6777 62.8063 89.8055 61.1472 91.2572L62.4642 92.7623ZM65.6963 84.7109C65.6963 82.4158 65.1197 80.3448 63.946 78.531L62.2669 79.6175C63.213 81.0797 63.6963 82.7665 63.6963 84.7109H65.6963ZM63.946 78.531C62.7729 76.7179 61.2302 75.5069 59.3155 75.0001L58.8037 76.9335C60.165 77.2938 61.3202 78.1545 62.2669 79.6175L63.946 78.531ZM59.319 75.001C57.5776 74.5332 55.137 74.3164 52.0498 74.3164V76.3164C55.0811 76.3164 57.3137 76.5332 58.8001 76.9326L59.319 75.001ZM52.0498 74.3164H38.7891V76.3164H52.0498V74.3164ZM37.7891 75.3164V94.5391H39.7891V75.3164H37.7891ZM87.0625 122V123H88.0625V122H87.0625ZM80.2334 122H79.2334V123H80.2334V122ZM80.2334 69.0293V68.0293H79.2334V69.0293H80.2334ZM87.0625 69.0293H88.0625V68.0293H87.0625V69.0293ZM87.0625 121H80.2334V123H87.0625V121ZM81.2334 122V69.0293H79.2334V122H81.2334ZM80.2334 70.0293H87.0625V68.0293H80.2334V70.0293ZM86.0625 69.0293V122H88.0625V69.0293H86.0625ZM121.425 111.919L122.246 112.489L122.425 112.232V111.919H121.425ZM121.425 103.428H122.425V102.428H121.425V103.428ZM104.117 116.002L103.526 116.808L103.535 116.815L104.117 116.002ZM121.425 118.062H122.425V115.765L120.744 117.329L121.425 118.062ZM98.625 119.832L97.9804 120.597L97.9848 120.6L98.625 119.832ZM121.425 98.4053V99.4053H122.425V98.4053H121.425ZM120.991 92.4434L120.017 92.6682L120.018 92.6724L120.991 92.4434ZM102.853 94.6113V95.6113H103.809L103.852 94.6557L102.853 94.6113ZM96.0596 94.6113L95.0616 94.5472L94.9933 95.6113H96.0596V94.6113ZM128.218 122V123H129.218V122H128.218ZM121.425 122H120.425V123H121.425V122ZM122.425 111.919V103.428H120.425V111.919H122.425ZM121.425 102.428H116.764V104.428H121.425V102.428ZM116.764 102.428C111.768 102.428 107.863 103.101 105.175 104.564C103.816 105.303 102.747 106.255 102.023 107.438C101.296 108.623 100.949 109.984 100.949 111.485H102.949C102.949 110.301 103.219 109.312 103.728 108.483C104.237 107.651 105.021 106.924 106.131 106.321C108.38 105.097 111.883 104.428 116.764 104.428V102.428ZM100.949 111.485C100.949 113.722 101.798 115.541 103.526 116.808L104.709 115.196C103.545 114.343 102.949 113.151 102.949 111.485H100.949ZM103.535 116.815C105.204 118.011 107.383 118.556 109.971 118.556V116.556C107.645 116.556 105.921 116.065 104.7 115.189L103.535 116.815ZM109.971 118.556C112.367 118.556 114.683 118.013 116.909 116.939L116.04 115.138C114.074 116.086 112.054 116.556 109.971 116.556V118.556ZM116.909 116.939C119.144 115.86 120.934 114.379 122.246 112.489L120.603 111.349C119.507 112.927 117.997 114.193 116.04 115.138L116.909 116.939ZM120.744 117.329C117.488 120.359 113.277 121.903 108.02 121.903V123.903C113.699 123.903 118.424 122.22 122.106 118.794L120.744 117.329ZM108.02 121.903C104.401 121.903 101.51 120.934 99.2652 119.064L97.9848 120.6C100.654 122.825 104.026 123.903 108.02 123.903V121.903ZM99.2696 119.068C97.041 117.188 95.9395 114.808 95.9395 111.847H93.9395C93.9395 115.389 95.2949 118.332 97.9804 120.597L99.2696 119.068ZM95.9395 111.847C95.9395 107.721 97.6813 104.691 101.232 102.631C104.865 100.522 110.444 99.4053 118.101 99.4053V97.4053C110.316 97.4053 104.315 98.5289 100.228 100.901C96.0578 103.321 93.9395 107.011 93.9395 111.847H95.9395ZM118.101 99.4053H121.425V97.4053H118.101V99.4053ZM122.425 98.4053C122.425 95.6504 122.282 93.5636 121.965 92.2143L120.018 92.6724C120.278 93.7801 120.425 95.668 120.425 98.4053H122.425ZM121.966 92.2185C121.604 90.6524 120.597 89.413 119.096 88.4853L118.044 90.1865C119.194 90.8969 119.8 91.7292 120.017 92.6682L121.966 92.2185ZM119.096 88.4853C117.528 87.5161 115.188 87.1074 112.247 87.1074V89.1074C115.087 89.1074 116.963 89.5178 118.044 90.1865L119.096 88.4853ZM112.247 87.1074C109.12 87.1074 106.582 87.6612 104.776 88.9112C102.916 90.1996 101.962 92.1364 101.854 94.5669L103.852 94.6557C103.936 92.7503 104.644 91.4352 105.915 90.5556C107.241 89.6376 109.304 89.1074 112.247 89.1074V87.1074ZM102.853 93.6113H96.0596V95.6113H102.853V93.6113ZM97.0575 94.6754C97.2947 90.9817 98.6853 88.3285 101.157 86.5636C103.675 84.7657 107.446 83.7959 112.608 83.7959V81.7959C107.244 81.7959 102.993 82.7954 99.9951 84.9359C96.9507 87.1095 95.3303 90.3641 95.0616 94.5472L97.0575 94.6754ZM112.608 83.7959C117.406 83.7959 121.004 84.7506 123.519 86.5378L124.678 84.9075C121.701 82.7924 117.639 81.7959 112.608 81.7959V83.7959ZM123.519 86.5378C125.861 88.2015 127.218 91.6044 127.218 97.2129H129.218C129.218 91.4034 127.829 87.1461 124.678 84.9075L123.519 86.5378ZM127.218 97.2129V122H129.218V97.2129H127.218ZM128.218 121H121.425V123H128.218V121ZM122.425 122V118.062H120.425V122H122.425ZM148.777 122L149.722 122.328L149.841 121.986L149.713 121.646L148.777 122ZM134.288 83.6631V82.6631H132.841L133.353 84.0166L134.288 83.6631ZM141.659 83.6631L142.606 83.3424L142.376 82.6631H141.659V83.6631ZM151.812 113.653L150.865 113.974L151.812 116.772L152.76 113.974L151.812 113.653ZM161.966 83.6631V82.6631H161.249L161.019 83.3424L161.966 83.6631ZM169.337 83.6631L170.272 84.0166L170.784 82.6631H169.337V83.6631ZM154.848 122L155.782 122.357L155.783 122.354L154.848 122ZM151.271 130.455L150.376 130.008L150.373 130.014L150.37 130.021L151.271 130.455ZM147.44 135.478L146.793 134.715L146.787 134.72L146.781 134.726L147.44 135.478ZM137.251 137.031H136.251V137.794L136.986 137.996L137.251 137.031ZM137.251 130.744L137.554 129.791L136.251 129.377V130.744H137.251ZM140.503 132.25C142.537 132.25 144.324 131.306 145.846 129.604C147.349 127.924 148.629 125.472 149.722 122.328L147.833 121.672C146.782 124.694 145.61 126.868 144.356 128.271C143.12 129.652 141.842 130.25 140.503 130.25V132.25ZM149.713 121.646L135.224 83.3095L133.353 84.0166L147.842 122.354L149.713 121.646ZM134.288 84.6631H141.659V82.6631H134.288V84.6631ZM140.712 83.9838L150.865 113.974L152.76 113.333L142.606 83.3424L140.712 83.9838ZM152.76 113.974L162.913 83.9838L161.019 83.3424L150.865 113.333L152.76 113.974ZM161.966 84.6631H169.337V82.6631H161.966V84.6631ZM168.401 83.3095L153.912 121.646L155.783 122.354L170.272 84.0166L168.401 83.3095ZM153.913 121.643C152.521 125.294 151.342 128.076 150.376 130.008L152.165 130.902C153.174 128.883 154.381 126.029 155.782 122.357L153.913 121.643ZM150.37 130.021C149.463 131.903 148.27 133.462 146.793 134.715L148.087 136.24C149.791 134.795 151.151 133.006 152.171 130.889L150.37 130.021ZM146.781 134.726C145.416 135.923 143.731 136.537 141.659 136.537V138.537C144.164 138.537 146.333 137.779 148.1 136.229L146.781 134.726ZM141.659 136.537C140.01 136.537 138.634 136.374 137.516 136.067L136.986 137.996C138.325 138.363 139.888 138.537 141.659 138.537V136.537ZM138.251 137.031V130.744H136.251V137.031H138.251ZM136.948 131.697C138.105 132.065 139.292 132.25 140.503 132.25V130.25C139.498 130.25 138.516 130.097 137.554 129.791L136.948 131.697ZM178.045 117.628L177.326 118.323L177.328 118.325L178.045 117.628ZM177.864 88.1436L177.133 87.4616L177.133 87.4618L177.864 88.1436ZM203.952 88.0352L203.22 88.7166L203.223 88.7193L203.952 88.0352ZM208.866 104.476V105.476H209.866V104.476H208.866ZM179.996 104.476V103.476H178.929L178.998 104.541L179.996 104.476ZM183.646 114.34L182.938 115.047L182.942 115.051L183.646 114.34ZM198.062 115.749L198.597 116.594L198.6 116.592L198.062 115.749ZM201.098 110.546V109.546H200.14L200.099 110.503L201.098 110.546ZM208.144 110.546L209.135 110.679L209.287 109.546H208.144V110.546ZM202.76 119.688L202.186 118.869L202.183 118.871L202.76 119.688ZM201.676 99.1279V100.128H202.837L202.665 98.9793L201.676 99.1279ZM183.862 90.8535L184.542 91.5873L184.547 91.5828L183.862 90.8535ZM180.141 99.1279L179.151 98.9865L178.988 100.128H180.141V99.1279ZM191.631 121.903C186.22 121.903 181.966 120.225 178.762 116.931L177.328 118.325C180.965 122.065 185.768 123.903 191.631 123.903V121.903ZM178.764 116.933C175.57 113.627 173.914 108.978 173.914 102.85H171.914C171.914 109.344 173.678 114.547 177.326 118.323L178.764 116.933ZM173.914 102.85C173.914 96.7628 175.514 92.1318 178.596 88.8253L177.133 87.4618C173.614 91.2373 171.914 96.4104 171.914 102.85H173.914ZM178.596 88.8255C181.711 85.4842 185.772 83.7959 190.872 83.7959V81.7959C185.277 81.7959 180.666 83.6727 177.133 87.4616L178.596 88.8255ZM190.872 83.7959C196.107 83.7959 200.186 85.4573 203.22 88.7166L204.684 87.3537C201.215 83.6273 196.573 81.7959 190.872 81.7959V83.7959ZM203.223 88.7193C206.274 91.972 207.866 96.6337 207.866 102.85H209.866C209.866 96.2986 208.183 91.084 204.682 87.351L203.223 88.7193ZM207.866 102.85V104.476H209.866V102.85H207.866ZM208.866 103.476H179.996V105.476H208.866V103.476ZM178.998 104.541C179.296 109.105 180.558 112.667 182.938 115.047L184.353 113.633C182.445 111.725 181.274 108.711 180.994 104.411L178.998 104.541ZM182.942 115.051C185.305 117.387 188.222 118.556 191.631 118.556V116.556C188.728 116.556 186.322 115.58 184.349 113.629L182.942 115.051ZM191.631 118.556C194.193 118.556 196.525 117.906 198.597 116.594L197.528 114.904C195.794 116.001 193.838 116.556 191.631 116.556V118.556ZM198.6 116.592C200.796 115.192 201.986 113.163 202.097 110.589L200.099 110.503C200.017 112.41 199.183 113.849 197.525 114.906L198.6 116.592ZM201.098 111.546H208.144V109.546H201.098V111.546ZM207.152 110.413C206.657 114.107 205 116.897 202.186 118.869L203.334 120.506C206.638 118.191 208.57 114.885 209.135 110.679L207.152 110.413ZM202.183 118.871C199.345 120.875 195.846 121.903 191.631 121.903V123.903C196.183 123.903 200.104 122.788 203.337 120.504L202.183 118.871ZM202.665 98.9793C202.091 95.1603 200.785 92.1637 198.643 90.1285L197.265 91.5785C198.977 93.2048 200.153 95.7245 200.687 99.2766L202.665 98.9793ZM198.643 90.1285C196.52 88.1115 193.908 87.1074 190.872 87.1074V89.1074C193.424 89.1074 195.534 89.9341 197.265 91.5785L198.643 90.1285ZM190.872 87.1074C187.901 87.1074 185.318 88.1163 183.178 90.1243L184.547 91.5828C186.309 89.9293 188.399 89.1074 190.872 89.1074V87.1074ZM183.183 90.1198C181.006 92.1353 179.7 95.141 179.151 98.9865L181.131 99.2694C181.641 95.6955 182.816 93.185 184.542 91.5873L183.183 90.1198ZM180.141 100.128H201.676V98.1279H180.141V100.128ZM236.436 89.8779L236.148 90.8358L237.436 91.222V89.8779H236.436ZM223.355 94.9004L222.529 94.3369L222.355 94.5918V94.9004H223.355ZM223.355 122V123H224.355V122H223.355ZM216.526 122H215.526V123H216.526V122ZM216.526 83.6631V82.6631H215.526V83.6631H216.526ZM223.355 83.6631H224.355V82.6631H223.355V83.6631ZM223.355 89.0107H222.355V92.2137L224.178 89.5797L223.355 89.0107ZM236.436 83.085H237.436V82.2439L236.607 82.0997L236.436 83.085ZM236.723 88.9201C235.62 88.5892 234.12 88.4443 232.28 88.4443V90.4443C234.054 90.4443 235.324 90.5885 236.148 90.8358L236.723 88.9201ZM232.28 88.4443C228.392 88.4443 225.14 90.509 222.529 94.3369L224.182 95.4639C226.533 92.017 229.231 90.4443 232.28 90.4443V88.4443ZM222.355 94.9004V122H224.355V94.9004H222.355ZM223.355 121H216.526V123H223.355V121ZM217.526 122V83.6631H215.526V122H217.526ZM216.526 84.6631H223.355V82.6631H216.526V84.6631ZM222.355 83.6631V89.0107H224.355V83.6631H222.355ZM224.178 89.5797C226.926 85.6077 229.979 83.7959 233.328 83.7959V81.7959C229.114 81.7959 225.518 84.1273 222.533 88.4418L224.178 89.5797ZM233.328 83.7959C234.226 83.7959 235.204 83.8857 236.264 84.0702L236.607 82.0997C235.451 81.8988 234.358 81.7959 233.328 81.7959V83.7959ZM235.436 83.085V89.8779H237.436V83.085H235.436Z" fill="black"/>
</g>
<defs>
<filter id="filter0_dd_3_6" x="0" y="0" width="262" height="201" filterUnits="userSpaceOnUse" color-interpolation-filters="sRGB">
<feFlood flood-opacity="0" result="BackgroundImageFix"/>
<feColorMatrix in="SourceAlpha" type="matrix" values="0 0 0 0 0 0 0 0 0 0 0 0 0 0 0 0 0 0 127 0" result="hardAlpha"/>
<feOffset dy="4"/>
<feGaussianBlur stdDeviation="2"/>
<feComposite in2="hardAlpha" operator="out"/>
<feColorMatrix type="matrix" values="0 0 0 0 0 0 0 0 0 0 0 0 0 0 0 0 0 0 0.25 0"/>
<feBlend mode="normal" in2="BackgroundImageFix" result="effect1_dropShadow_3_6"/>
<feColorMatrix in="SourceAlpha" type="matrix" values="0 0 0 0 0 0 0 0 0 0 0 0 0 0 0 0 0 0 127 0" result="hardAlpha"/>
<feOffset dy="4"/>
<feGaussianBlur stdDeviation="2"/>
<feComposite in2="hardAlpha" operator="out"/>
<feColorMatrix type="matrix" values="0 0 0 0 0 0 0 0 0 0 0 0 0 0 0 0 0 0 0.25 0"/>
<feBlend mode="normal" in2="effect1_dropShadow_3_6" result="effect2_dropShadow_3_6"/>
<feBlend mode="normal" in="SourceGraphic" in2="effect2_dropShadow_3_6" result="shape"/>
</filter>
<filter id="filter1_d_3_6" x="27.7793" y="69.0293" width="212.656" height="76.5078" filterUnits="userSpaceOnUse" color-interpolation-filters="sRGB">
<feFlood flood-opacity="0" result="BackgroundImageFix"/>
<feColorMatrix in="SourceAlpha" type="matrix" values="0 0 0 0 0 0 0 0 0 0 0 0 0 0 0 0 0 0 127 0" result="hardAlpha"/>
<feOffset dy="4"/>
<feGaussianBlur stdDeviation="2"/>
<feComposite in2="hardAlpha" operator="out"/>
<feColorMatrix type="matrix" values="0 0 0 0 0 0 0 0 0 0 0 0 0 0 0 0 0 0 0.25 0"/>
<feBlend mode="normal" in2="BackgroundImageFix" result="effect1_dropShadow_3_6"/>
<feBlend mode="normal" in="SourceGraphic" in2="effect1_dropShadow_3_6" result="shape"/>
</filter>
</defs>
</svg>
