<svg width="266" height="205" viewBox="0 0 266 205" fill="none" xmlns="http://www.w3.org/2000/svg">
<rect width="266" height="202" fill="#FAFF00"/>
<g filter="url(#filter0_d_6_11)">
<path d="M13 11H253V190H13V11Z" fill="#6FA8DC"/>
<path d="M13 7.5C11.067 7.5 9.5 9.067 9.5 11V190C9.5 191.933 11.067 193.5 13 193.5H253C254.933 193.5 256.5 191.933 256.5 190V11C256.5 9.067 254.933 7.5 253 7.5H13Z" stroke="black" stroke-width="7" stroke-linejoin="round"/>
</g>
<g filter="url(#filter1_d_6_11)">
<path d="M33.7793 73.0293H53.5439C57.8799 73.0293 61.5052 73.4388 64.4199 74.2578C67.3587 75.0527 69.6833 76.7992 71.3936 79.4971C73.1038 82.1709 73.959 85.1699 73.959 88.4941C73.959 93.8418 72.2607 97.9007 68.8643 100.671C65.4678 103.441 60.5537 104.826 54.1221 104.826H40.7891V126H33.7793V73.0293ZM40.7891 98.5391H54.1943C58.6989 98.5391 61.9027 97.696 63.8057 96.0098C65.7327 94.3236 66.6963 91.8906 66.6963 88.7109C66.6963 86.5911 66.1663 84.7122 65.1064 83.0742C64.0465 81.4362 62.6976 80.4004 61.0596 79.9668C59.4456 79.5332 57.109 79.3164 54.0498 79.3164H40.7891V98.5391ZM89.0625 126H82.2334V73.0293H89.0625V126ZM123.425 115.919V107.428H118.764C108.887 107.428 103.949 110.114 103.949 115.485C103.949 117.437 104.672 118.942 106.117 120.002C107.562 121.038 109.514 121.556 111.971 121.556C114.211 121.556 116.379 121.05 118.475 120.038C120.57 119.026 122.22 117.653 123.425 115.919ZM123.425 122.062C119.956 125.289 115.488 126.903 110.02 126.903C106.214 126.903 103.082 125.88 100.625 123.832C98.168 121.76 96.9395 119.099 96.9395 115.847C96.9395 106.886 104.66 102.405 120.101 102.405H123.425C123.425 99.6592 123.28 97.6719 122.991 96.4434C122.702 95.1908 121.895 94.1549 120.57 93.3359C119.245 92.5169 117.138 92.1074 114.247 92.1074C108.177 92.1074 105.045 94.2754 104.853 98.6113H98.0596C98.5654 90.7344 104.082 86.7959 114.608 86.7959C119.522 86.7959 123.353 87.7715 126.099 89.7227C128.845 91.6738 130.218 95.5039 130.218 101.213V126H123.425V122.062ZM142.503 135.25C145.875 135.25 148.633 132.167 150.777 126L136.288 87.6631H143.659L153.812 117.653L163.966 87.6631H171.337L156.848 126C155.451 129.661 154.258 132.48 153.271 134.455C152.307 136.454 151.03 138.129 149.44 139.478C147.875 140.851 145.948 141.537 143.659 141.537C141.949 141.537 140.479 141.368 139.251 141.031V134.744C140.311 135.081 141.395 135.25 142.503 135.25ZM193.631 126.903C187.994 126.903 183.465 125.145 180.045 121.628C176.624 118.087 174.914 113.161 174.914 106.85C174.914 100.587 176.564 95.6846 179.864 92.1436C183.188 88.5785 187.524 86.7959 192.872 86.7959C198.34 86.7959 202.7 88.5423 205.952 92.0352C209.228 95.528 210.866 100.466 210.866 106.85V108.476H181.996C182.285 112.908 183.502 116.196 185.646 118.34C187.813 120.484 190.475 121.556 193.631 121.556C196.016 121.556 198.16 120.953 200.062 119.749C201.99 118.521 203.001 116.786 203.098 114.546H210.144C209.614 118.496 207.819 121.544 204.76 123.688C201.725 125.831 198.015 126.903 193.631 126.903ZM203.676 103.128C203.122 99.4424 201.881 96.6842 199.954 94.8535C198.027 93.0228 195.666 92.1074 192.872 92.1074C190.15 92.1074 187.813 93.0228 185.862 94.8535C183.911 96.6602 182.671 99.4183 182.141 103.128H203.676ZM238.436 93.8779C237.472 93.5889 236.087 93.4443 234.28 93.4443C230.812 93.4443 227.837 95.263 225.355 98.9004V126H218.526V87.6631H225.355V93.0107C228.222 88.8675 231.546 86.7959 235.328 86.7959C236.292 86.7959 237.327 86.8923 238.436 87.085V93.8779Z" fill="black"/>
<path d="M33.7793 73.0293V72.0293H32.7793V73.0293H33.7793ZM64.4199 74.2578L64.1494 75.2206L64.1588 75.2231L64.4199 74.2578ZM71.3936 79.4971L70.549 80.0325L70.5511 80.0359L71.3936 79.4971ZM40.7891 104.826V103.826H39.7891V104.826H40.7891ZM40.7891 126V127H41.7891V126H40.7891ZM33.7793 126H32.7793V127H33.7793V126ZM40.7891 98.5391H39.7891V99.5391H40.7891V98.5391ZM63.8057 96.0098L63.1471 95.2572L63.1425 95.2613L63.8057 96.0098ZM65.1064 83.0742L65.946 82.531L65.1064 83.0742ZM61.0596 79.9668L60.8001 80.9326L60.8037 80.9335L61.0596 79.9668ZM40.7891 79.3164V78.3164H39.7891V79.3164H40.7891ZM33.7793 74.0293H53.5439V72.0293H33.7793V74.0293ZM53.5439 74.0293C57.8243 74.0293 61.3516 74.4344 64.1494 75.2205L64.6904 73.2951C61.6588 72.4432 57.9355 72.0293 53.5439 72.0293V74.0293ZM64.1588 75.2231C66.8435 75.9493 68.9653 77.5344 70.549 80.0325L72.2381 78.9617C70.4012 76.0639 67.874 74.1562 64.681 73.2925L64.1588 75.2231ZM70.5511 80.0359C72.1535 82.541 72.959 85.3514 72.959 88.4941H74.959C74.959 84.9884 74.0542 81.8008 72.236 78.9582L70.5511 80.0359ZM72.959 88.4941C72.959 93.6142 71.3447 97.3574 68.2322 99.896L69.4963 101.446C73.1768 98.444 74.959 94.0694 74.959 88.4941H72.959ZM68.2322 99.896C65.081 102.466 60.4277 103.826 54.1221 103.826V105.826C60.6797 105.826 65.8545 104.416 69.4963 101.446L68.2322 99.896ZM54.1221 103.826H40.7891V105.826H54.1221V103.826ZM39.7891 104.826V126H41.7891V104.826H39.7891ZM40.7891 125H33.7793V127H40.7891V125ZM34.7793 126V73.0293H32.7793V126H34.7793ZM40.7891 99.5391H54.1943V97.5391H40.7891V99.5391ZM54.1943 99.5391C58.7727 99.5391 62.2864 98.692 64.4689 96.7582L63.1425 95.2613C61.5189 96.6999 58.6251 97.5391 54.1943 97.5391V99.5391ZM64.4642 96.7623C66.6592 94.8417 67.6963 92.1036 67.6963 88.7109H65.6963C65.6963 91.6777 64.8063 93.8055 63.1472 95.2572L64.4642 96.7623ZM67.6963 88.7109C67.6963 86.4158 67.1197 84.3448 65.946 82.531L64.2669 83.6175C65.213 85.0797 65.6963 86.7665 65.6963 88.7109H67.6963ZM65.946 82.531C64.7729 80.7179 63.2302 79.5069 61.3155 79.0001L60.8037 80.9335C62.165 81.2938 63.3202 82.1545 64.2669 83.6175L65.946 82.531ZM61.319 79.001C59.5776 78.5332 57.137 78.3164 54.0498 78.3164V80.3164C57.0811 80.3164 59.3137 80.5332 60.8001 80.9326L61.319 79.001ZM54.0498 78.3164H40.7891V80.3164H54.0498V78.3164ZM39.7891 79.3164V98.5391H41.7891V79.3164H39.7891ZM89.0625 126V127H90.0625V126H89.0625ZM82.2334 126H81.2334V127H82.2334V126ZM82.2334 73.0293V72.0293H81.2334V73.0293H82.2334ZM89.0625 73.0293H90.0625V72.0293H89.0625V73.0293ZM89.0625 125H82.2334V127H89.0625V125ZM83.2334 126V73.0293H81.2334V126H83.2334ZM82.2334 74.0293H89.0625V72.0293H82.2334V74.0293ZM88.0625 73.0293V126H90.0625V73.0293H88.0625ZM123.425 115.919L124.246 116.489L124.425 116.232V115.919H123.425ZM123.425 107.428H124.425V106.428H123.425V107.428ZM106.117 120.002L105.526 120.808L105.535 120.815L106.117 120.002ZM123.425 122.062H124.425V119.765L122.744 121.329L123.425 122.062ZM100.625 123.832L99.9804 124.597L99.9848 124.6L100.625 123.832ZM123.425 102.405V103.405H124.425V102.405H123.425ZM122.991 96.4434L122.017 96.6682L122.018 96.6724L122.991 96.4434ZM104.853 98.6113V99.6113H105.809L105.852 98.6557L104.853 98.6113ZM98.0596 98.6113L97.0616 98.5472L96.9933 99.6113H98.0596V98.6113ZM130.218 126V127H131.218V126H130.218ZM123.425 126H122.425V127H123.425V126ZM124.425 115.919V107.428H122.425V115.919H124.425ZM123.425 106.428H118.764V108.428H123.425V106.428ZM118.764 106.428C113.768 106.428 109.863 107.101 107.175 108.564C105.816 109.303 104.747 110.255 104.023 111.438C103.296 112.623 102.949 113.984 102.949 115.485H104.949C104.949 114.301 105.219 113.312 105.728 112.483C106.237 111.651 107.021 110.924 108.131 110.321C110.38 109.097 113.883 108.428 118.764 108.428V106.428ZM102.949 115.485C102.949 117.722 103.798 119.541 105.526 120.808L106.709 119.196C105.545 118.343 104.949 117.151 104.949 115.485H102.949ZM105.535 120.815C107.204 122.011 109.383 122.556 111.971 122.556V120.556C109.645 120.556 107.921 120.065 106.7 119.189L105.535 120.815ZM111.971 122.556C114.367 122.556 116.683 122.013 118.909 120.939L118.04 119.138C116.074 120.086 114.054 120.556 111.971 120.556V122.556ZM118.909 120.939C121.144 119.86 122.934 118.379 124.246 116.489L122.603 115.349C121.507 116.927 119.997 118.193 118.04 119.138L118.909 120.939ZM122.744 121.329C119.488 124.359 115.277 125.903 110.02 125.903V127.903C115.699 127.903 120.424 126.22 124.106 122.794L122.744 121.329ZM110.02 125.903C106.401 125.903 103.51 124.934 101.265 123.064L99.9848 124.6C102.654 126.825 106.026 127.903 110.02 127.903V125.903ZM101.27 123.068C99.041 121.188 97.9395 118.808 97.9395 115.847H95.9395C95.9395 119.389 97.2949 122.332 99.9804 124.597L101.27 123.068ZM97.9395 115.847C97.9395 111.721 99.6813 108.691 103.232 106.631C106.865 104.522 112.444 103.405 120.101 103.405V101.405C112.316 101.405 106.315 102.529 102.228 104.901C98.0578 107.321 95.9395 111.011 95.9395 115.847H97.9395ZM120.101 103.405H123.425V101.405H120.101V103.405ZM124.425 102.405C124.425 99.6504 124.282 97.5636 123.965 96.2143L122.018 96.6724C122.278 97.7801 122.425 99.668 122.425 102.405H124.425ZM123.966 96.2185C123.604 94.6524 122.597 93.413 121.096 92.4853L120.044 94.1865C121.194 94.8969 121.8 95.7292 122.017 96.6682L123.966 96.2185ZM121.096 92.4853C119.528 91.5161 117.188 91.1074 114.247 91.1074V93.1074C117.087 93.1074 118.963 93.5178 120.044 94.1865L121.096 92.4853ZM114.247 91.1074C111.12 91.1074 108.582 91.6612 106.776 92.9112C104.916 94.1996 103.962 96.1364 103.854 98.5669L105.852 98.6557C105.936 96.7503 106.644 95.4352 107.915 94.5556C109.241 93.6376 111.304 93.1074 114.247 93.1074V91.1074ZM104.853 97.6113H98.0596V99.6113H104.853V97.6113ZM99.0575 98.6754C99.2947 94.9817 100.685 92.3285 103.157 90.5636C105.675 88.7657 109.446 87.7959 114.608 87.7959V85.7959C109.244 85.7959 104.993 86.7954 101.995 88.9359C98.9507 91.1095 97.3303 94.3641 97.0616 98.5472L99.0575 98.6754ZM114.608 87.7959C119.406 87.7959 123.004 88.7506 125.519 90.5378L126.678 88.9075C123.701 86.7924 119.639 85.7959 114.608 85.7959V87.7959ZM125.519 90.5378C127.861 92.2015 129.218 95.6044 129.218 101.213H131.218C131.218 95.4034 129.829 91.1461 126.678 88.9075L125.519 90.5378ZM129.218 101.213V126H131.218V101.213H129.218ZM130.218 125H123.425V127H130.218V125ZM124.425 126V122.062H122.425V126H124.425ZM150.777 126L151.722 126.328L151.841 125.986L151.713 125.646L150.777 126ZM136.288 87.6631V86.6631H134.841L135.353 88.0166L136.288 87.6631ZM143.659 87.6631L144.606 87.3424L144.376 86.6631H143.659V87.6631ZM153.812 117.653L152.865 117.974L153.812 120.772L154.76 117.974L153.812 117.653ZM163.966 87.6631V86.6631H163.249L163.019 87.3424L163.966 87.6631ZM171.337 87.6631L172.272 88.0166L172.784 86.6631H171.337V87.6631ZM156.848 126L157.782 126.357L157.783 126.354L156.848 126ZM153.271 134.455L152.376 134.008L152.373 134.014L152.37 134.021L153.271 134.455ZM149.44 139.478L148.793 138.715L148.787 138.72L148.781 138.726L149.44 139.478ZM139.251 141.031H138.251V141.794L138.986 141.996L139.251 141.031ZM139.251 134.744L139.554 133.791L138.251 133.377V134.744H139.251ZM142.503 136.25C144.537 136.25 146.324 135.306 147.846 133.604C149.349 131.924 150.629 129.472 151.722 126.328L149.833 125.672C148.782 128.694 147.61 130.868 146.356 132.271C145.12 133.652 143.842 134.25 142.503 134.25V136.25ZM151.713 125.646L137.224 87.3095L135.353 88.0166L149.842 126.354L151.713 125.646ZM136.288 88.6631H143.659V86.6631H136.288V88.6631ZM142.712 87.9838L152.865 117.974L154.76 117.333L144.606 87.3424L142.712 87.9838ZM154.76 117.974L164.913 87.9838L163.019 87.3424L152.865 117.333L154.76 117.974ZM163.966 88.6631H171.337V86.6631H163.966V88.6631ZM170.401 87.3095L155.912 125.646L157.783 126.354L172.272 88.0166L170.401 87.3095ZM155.913 125.643C154.521 129.294 153.342 132.076 152.376 134.008L154.165 134.902C155.174 132.883 156.381 130.029 157.782 126.357L155.913 125.643ZM152.37 134.021C151.463 135.903 150.27 137.462 148.793 138.715L150.087 140.24C151.791 138.795 153.151 137.006 154.171 134.889L152.37 134.021ZM148.781 138.726C147.416 139.923 145.731 140.537 143.659 140.537V142.537C146.164 142.537 148.333 141.779 150.1 140.229L148.781 138.726ZM143.659 140.537C142.01 140.537 140.634 140.374 139.516 140.067L138.986 141.996C140.325 142.363 141.888 142.537 143.659 142.537V140.537ZM140.251 141.031V134.744H138.251V141.031H140.251ZM138.948 135.697C140.105 136.065 141.292 136.25 142.503 136.25V134.25C141.498 134.25 140.516 134.097 139.554 133.791L138.948 135.697ZM180.045 121.628L179.326 122.323L179.328 122.325L180.045 121.628ZM179.864 92.1436L179.133 91.4616L179.133 91.4618L179.864 92.1436ZM205.952 92.0352L205.22 92.7166L205.223 92.7193L205.952 92.0352ZM210.866 108.476V109.476H211.866V108.476H210.866ZM181.996 108.476V107.476H180.929L180.998 108.541L181.996 108.476ZM185.646 118.34L184.938 119.047L184.942 119.051L185.646 118.34ZM200.062 119.749L200.597 120.594L200.6 120.592L200.062 119.749ZM203.098 114.546V113.546H202.14L202.099 114.503L203.098 114.546ZM210.144 114.546L211.135 114.679L211.287 113.546H210.144V114.546ZM204.76 123.688L204.186 122.869L204.183 122.871L204.76 123.688ZM203.676 103.128V104.128H204.837L204.665 102.979L203.676 103.128ZM185.862 94.8535L186.542 95.5873L186.547 95.5828L185.862 94.8535ZM182.141 103.128L181.151 102.987L180.988 104.128H182.141V103.128ZM193.631 125.903C188.22 125.903 183.966 124.225 180.762 120.931L179.328 122.325C182.965 126.065 187.768 127.903 193.631 127.903V125.903ZM180.764 120.933C177.57 117.627 175.914 112.978 175.914 106.85H173.914C173.914 113.344 175.678 118.547 179.326 122.323L180.764 120.933ZM175.914 106.85C175.914 100.763 177.514 96.1318 180.596 92.8253L179.133 91.4618C175.614 95.2373 173.914 100.41 173.914 106.85H175.914ZM180.596 92.8255C183.711 89.4842 187.772 87.7959 192.872 87.7959V85.7959C187.277 85.7959 182.666 87.6727 179.133 91.4616L180.596 92.8255ZM192.872 87.7959C198.107 87.7959 202.186 89.4573 205.22 92.7166L206.684 91.3537C203.215 87.6273 198.573 85.7959 192.872 85.7959V87.7959ZM205.223 92.7193C208.274 95.972 209.866 100.634 209.866 106.85H211.866C211.866 100.299 210.183 95.084 206.682 91.351L205.223 92.7193ZM209.866 106.85V108.476H211.866V106.85H209.866ZM210.866 107.476H181.996V109.476H210.866V107.476ZM180.998 108.541C181.296 113.105 182.558 116.667 184.938 119.047L186.353 117.633C184.445 115.725 183.274 112.711 182.994 108.411L180.998 108.541ZM184.942 119.051C187.305 121.387 190.222 122.556 193.631 122.556V120.556C190.728 120.556 188.322 119.58 186.349 117.629L184.942 119.051ZM193.631 122.556C196.193 122.556 198.525 121.906 200.597 120.594L199.528 118.904C197.794 120.001 195.838 120.556 193.631 120.556V122.556ZM200.6 120.592C202.796 119.192 203.986 117.163 204.097 114.589L202.099 114.503C202.017 116.41 201.183 117.849 199.525 118.906L200.6 120.592ZM203.098 115.546H210.144V113.546H203.098V115.546ZM209.152 114.413C208.657 118.107 207 120.897 204.186 122.869L205.334 124.506C208.638 122.191 210.57 118.885 211.135 114.679L209.152 114.413ZM204.183 122.871C201.345 124.875 197.846 125.903 193.631 125.903V127.903C198.183 127.903 202.104 126.788 205.337 124.504L204.183 122.871ZM204.665 102.979C204.091 99.1603 202.785 96.1637 200.643 94.1285L199.265 95.5785C200.977 97.2048 202.153 99.7245 202.687 103.277L204.665 102.979ZM200.643 94.1285C198.52 92.1115 195.908 91.1074 192.872 91.1074V93.1074C195.424 93.1074 197.534 93.9341 199.265 95.5785L200.643 94.1285ZM192.872 91.1074C189.901 91.1074 187.318 92.1163 185.178 94.1243L186.547 95.5828C188.309 93.9293 190.399 93.1074 192.872 93.1074V91.1074ZM185.183 94.1198C183.006 96.1353 181.7 99.141 181.151 102.987L183.131 103.269C183.641 99.6955 184.816 97.185 186.542 95.5873L185.183 94.1198ZM182.141 104.128H203.676V102.128H182.141V104.128ZM238.436 93.8779L238.148 94.8358L239.436 95.222V93.8779H238.436ZM225.355 98.9004L224.529 98.3369L224.355 98.5918V98.9004H225.355ZM225.355 126V127H226.355V126H225.355ZM218.526 126H217.526V127H218.526V126ZM218.526 87.6631V86.6631H217.526V87.6631H218.526ZM225.355 87.6631H226.355V86.6631H225.355V87.6631ZM225.355 93.0107H224.355V96.2137L226.178 93.5797L225.355 93.0107ZM238.436 87.085H239.436V86.2439L238.607 86.0997L238.436 87.085ZM238.723 92.9201C237.62 92.5892 236.12 92.4443 234.28 92.4443V94.4443C236.054 94.4443 237.324 94.5885 238.148 94.8358L238.723 92.9201ZM234.28 92.4443C230.392 92.4443 227.14 94.509 224.529 98.3369L226.182 99.4639C228.533 96.017 231.231 94.4443 234.28 94.4443V92.4443ZM224.355 98.9004V126H226.355V98.9004H224.355ZM225.355 125H218.526V127H225.355V125ZM219.526 126V87.6631H217.526V126H219.526ZM218.526 88.6631H225.355V86.6631H218.526V88.6631ZM224.355 87.6631V93.0107H226.355V87.6631H224.355ZM226.178 93.5797C228.926 89.6077 231.979 87.7959 235.328 87.7959V85.7959C231.114 85.7959 227.518 88.1273 224.533 92.4418L226.178 93.5797ZM235.328 87.7959C236.226 87.7959 237.204 87.8857 238.264 88.0702L238.607 86.0997C237.451 85.8988 236.358 85.7959 235.328 85.7959V87.7959ZM237.436 87.085V93.8779H239.436V87.085H237.436Z" fill="black"/>
</g>
<defs>
<filter id="filter0_d_6_11" x="2" y="4" width="262" height="201" filterUnits="userSpaceOnUse" color-interpolation-filters="sRGB">
<feFlood flood-opacity="0" result="BackgroundImageFix"/>
<feColorMatrix in="SourceAlpha" type="matrix" values="0 0 0 0 0 0 0 0 0 0 0 0 0 0 0 0 0 0 127 0" result="hardAlpha"/>
<feOffset dy="4"/>
<feGaussianBlur stdDeviation="2"/>
<feComposite in2="hardAlpha" operator="out"/>
<feColorMatrix type="matrix" values="0 0 0 0 0 0 0 0 0 0 0 0 0 0 0 0 0 0 0.25 0"/>
<feBlend mode="normal" in2="BackgroundImageFix" result="effect1_dropShadow_6_11"/>
<feBlend mode="normal" in="SourceGraphic" in2="effect1_dropShadow_6_11" result="shape"/>
</filter>
<filter id="filter1_d_6_11" x="29.7793" y="73.0293" width="212.656" height="76.5078" filterUnits="userSpaceOnUse" color-interpolation-filters="sRGB">
<feFlood flood-opacity="0" result="BackgroundImageFix"/>
<feColorMatrix in="SourceAlpha" type="matrix" values="0 0 0 0 0 0 0 0 0 0 0 0 0 0 0 0 0 0 127 0" result="hardAlpha"/>
<feOffset dy="4"/>
<feGaussianBlur stdDeviation="2"/>
<feComposite in2="hardAlpha" operator="out"/>
<feColorMatrix type="matrix" values="0 0 0 0 0 0 0 0 0 0 0 0 0 0 0 0 0 0 0.25 0"/>
<feBlend mode="normal" in2="BackgroundImageFix" result="effect1_dropShadow_6_11"/>
<feBlend mode="normal" in="SourceGraphic" in2="effect1_dropShadow_6_11" result="shape"/>
</filter>
</defs>
</svg>
