<svg width="745" height="267" viewBox="0 0 745 267" fill="none" xmlns="http://www.w3.org/2000/svg">
<rect width="745" height="264" fill="#FAFF00"/>
<g filter="url(#filter0_dd_2_9)">
<rect x="13" y="12" width="720" height="240" fill="#6FA8DC"/>
<rect x="9.5" y="8.5" width="727" height="247" stroke="black" stroke-width="7" stroke-linejoin="round"/>
</g>
<g filter="url(#filter1_d_2_9)">
<path d="M302.144 158.903C294.676 158.903 289.088 157.229 285.378 153.881C281.692 150.533 279.753 146.233 279.561 140.981H286.317C286.679 144.932 288.317 147.859 291.231 149.762C294.17 151.641 297.711 152.58 301.854 152.58C305.781 152.58 308.937 151.773 311.321 150.159C313.73 148.545 314.935 146.353 314.935 143.583C314.935 140.668 313.694 138.549 311.213 137.224C308.732 135.899 304.456 134.598 298.386 133.321C292.34 132.021 287.992 130.226 285.342 127.938C282.716 125.649 281.403 122.602 281.403 118.796C281.403 114.508 283.114 110.991 286.534 108.245C289.979 105.499 294.544 104.126 300.229 104.126C306.202 104.126 311.02 105.511 314.682 108.281C318.343 111.051 320.282 114.966 320.499 120.024H313.67C312.971 113.617 308.587 110.413 300.518 110.413C296.615 110.413 293.592 111.148 291.448 112.617C289.304 114.087 288.232 116.038 288.232 118.471C288.232 120.687 289.088 122.349 290.798 123.457C292.532 124.565 295.748 125.637 300.445 126.673C305.167 127.709 308.912 128.732 311.683 129.744C314.453 130.756 316.826 132.334 318.801 134.478C320.776 136.597 321.764 139.452 321.764 143.041C321.764 147.594 319.945 151.376 316.308 154.387C312.694 157.398 307.973 158.903 302.144 158.903ZM345.503 158.072C344.009 158.361 342.383 158.506 340.625 158.506C337.831 158.506 335.783 158.012 334.482 157.024C333.182 156.013 332.375 154.724 332.062 153.158C331.748 151.592 331.592 149.461 331.592 146.763V125.011H326.858V119.663H331.592V110.124H338.385V119.663H344.6V125.011H338.385V147.124C338.385 149.75 338.71 151.424 339.36 152.146C340.035 152.845 340.95 153.194 342.106 153.194C343.287 153.194 344.419 153.098 345.503 152.905V158.072ZM375.493 147.919V139.428H370.832C360.956 139.428 356.018 142.114 356.018 147.485C356.018 149.437 356.74 150.942 358.186 152.002C359.631 153.038 361.582 153.556 364.039 153.556C366.279 153.556 368.447 153.05 370.543 152.038C372.639 151.026 374.289 149.653 375.493 147.919ZM375.493 154.062C372.024 157.289 367.556 158.903 362.088 158.903C358.282 158.903 355.15 157.88 352.693 155.832C350.236 153.76 349.008 151.099 349.008 147.847C349.008 138.886 356.728 134.405 372.169 134.405H375.493C375.493 131.659 375.349 129.672 375.06 128.443C374.771 127.191 373.964 126.155 372.639 125.336C371.314 124.517 369.206 124.107 366.315 124.107C360.245 124.107 357.114 126.275 356.921 130.611H350.128C350.634 122.734 356.15 118.796 366.677 118.796C371.591 118.796 375.421 119.771 378.167 121.723C380.913 123.674 382.286 127.504 382.286 133.213V158H375.493V154.062ZM399.232 124.541C402.629 120.711 406.447 118.796 410.687 118.796C419.334 118.796 423.658 123.505 423.658 132.924V158H416.829V133.213C416.829 130.081 416.263 127.829 415.131 126.456C414.023 125.083 412.192 124.396 409.639 124.396C406.17 124.396 402.701 126.444 399.232 130.539V158H392.403V119.663H399.232V124.541ZM457.876 146.979V128.769C454.937 125.661 451.577 124.107 447.795 124.107C444.88 124.107 442.544 125.372 440.785 127.901C439.051 130.407 438.184 134.152 438.184 139.139C438.184 143.86 439.003 147.449 440.641 149.906C442.303 152.339 444.591 153.556 447.506 153.556C451.312 153.556 454.769 151.364 457.876 146.979ZM457.876 153.411C454.841 157.073 451.191 158.903 446.928 158.903C441.917 158.903 438.039 157.121 435.293 153.556C432.547 149.991 431.174 145.185 431.174 139.139C431.174 132.876 432.703 127.925 435.763 124.288C438.846 120.627 442.712 118.796 447.361 118.796C451.505 118.796 455.009 120.073 457.876 122.626V105.029H464.669V158H457.876V153.411Z" fill="black"/>
<path d="M285.378 153.881L284.705 154.621L284.708 154.623L285.378 153.881ZM279.561 140.981V139.981H278.523L278.561 141.018L279.561 140.981ZM286.317 140.981L287.313 140.89L287.23 139.981H286.317V140.981ZM291.231 149.762L290.685 150.599L290.693 150.604L291.231 149.762ZM311.321 150.159L310.765 149.328L310.761 149.331L311.321 150.159ZM311.213 137.224L310.742 138.106L311.213 137.224ZM298.386 133.321L298.175 134.299L298.18 134.3L298.386 133.321ZM285.342 127.938L284.685 128.691L284.688 128.694L285.342 127.938ZM286.534 108.245L285.911 107.463L285.908 107.465L286.534 108.245ZM314.682 108.281L315.285 107.484L314.682 108.281ZM320.499 120.024V121.024H321.543L321.498 119.982L320.499 120.024ZM313.67 120.024L312.676 120.133L312.773 121.024H313.67V120.024ZM290.798 123.457L290.254 124.296L290.259 124.3L290.798 123.457ZM300.445 126.673L300.23 127.649L300.231 127.65L300.445 126.673ZM311.683 129.744L311.34 130.683L311.683 129.744ZM318.801 134.478L318.065 135.155L318.069 135.159L318.801 134.478ZM316.308 154.387L315.67 153.616L315.667 153.618L316.308 154.387ZM302.144 157.903C294.804 157.903 289.501 156.255 286.048 153.139L284.708 154.623C288.674 158.203 294.548 159.903 302.144 159.903V157.903ZM286.05 153.141C282.576 149.984 280.743 145.944 280.56 140.945L278.561 141.018C278.763 146.522 280.809 151.081 284.705 154.621L286.05 153.141ZM279.561 141.981H286.317V139.981H279.561V141.981ZM285.322 141.073C285.706 145.279 287.476 148.504 290.685 150.599L291.778 148.924C289.157 147.213 287.651 144.585 287.313 140.89L285.322 141.073ZM290.693 150.604C293.821 152.604 297.557 153.58 301.854 153.58V151.58C297.866 151.58 294.52 150.677 291.77 148.919L290.693 150.604ZM301.854 153.58C305.91 153.58 309.281 152.747 311.882 150.987L310.761 149.331C308.592 150.799 305.652 151.58 301.854 151.58V153.58ZM311.878 150.99C314.548 149.201 315.935 146.705 315.935 143.583H313.935C313.935 146.001 312.912 147.89 310.765 149.328L311.878 150.99ZM315.935 143.583C315.935 141.981 315.593 140.542 314.867 139.302C314.141 138.061 313.063 137.078 311.684 136.342L310.742 138.106C311.844 138.694 312.627 139.434 313.141 140.312C313.656 141.192 313.935 142.27 313.935 143.583H315.935ZM311.684 136.342C309.068 134.945 304.671 133.621 298.592 132.343L298.18 134.3C304.242 135.575 308.396 136.853 310.742 138.106L311.684 136.342ZM298.596 132.344C292.606 131.055 288.455 129.305 285.995 127.181L284.688 128.694C287.528 131.147 292.073 132.986 298.175 134.299L298.596 132.344ZM285.999 127.184C283.613 125.104 282.403 122.343 282.403 118.796H280.403C280.403 122.861 281.819 126.194 284.685 128.691L285.999 127.184ZM282.403 118.796C282.403 114.819 283.97 111.586 287.16 109.025L285.908 107.465C282.257 110.396 280.403 114.197 280.403 118.796H282.403ZM287.158 109.027C290.379 106.459 294.704 105.126 300.229 105.126V103.126C294.384 103.126 289.578 104.539 285.911 107.463L287.158 109.027ZM300.229 105.126C306.05 105.126 310.637 106.475 314.078 109.079L315.285 107.484C311.404 104.547 306.355 103.126 300.229 103.126V105.126ZM314.078 109.079C317.476 111.649 319.294 115.272 319.5 120.067L321.498 119.982C321.27 114.66 319.211 110.454 315.285 107.484L314.078 109.079ZM320.499 119.024H313.67V121.024H320.499V119.024ZM314.664 119.916C314.29 116.49 312.909 113.807 310.448 112.009C308.02 110.234 304.666 109.413 300.518 109.413V111.413C304.438 111.413 307.312 112.194 309.268 113.623C311.191 115.028 312.351 117.151 312.676 120.133L314.664 119.916ZM300.518 109.413C296.509 109.413 293.257 110.165 290.883 111.792L292.014 113.442C293.927 112.131 296.722 111.413 300.518 111.413V109.413ZM290.883 111.792C288.489 113.433 287.232 115.682 287.232 118.471H289.232C289.232 116.393 290.12 114.74 292.014 113.442L290.883 111.792ZM287.232 118.471C287.232 120.991 288.231 122.985 290.254 124.296L291.342 122.618C289.944 121.712 289.232 120.383 289.232 118.471H287.232ZM290.259 124.3C292.158 125.512 295.531 126.613 300.23 127.649L300.661 125.696C295.965 124.661 292.907 123.618 291.336 122.614L290.259 124.3ZM300.231 127.65C304.932 128.681 308.629 129.694 311.34 130.683L312.026 128.805C309.196 127.771 305.401 126.736 300.66 125.696L300.231 127.65ZM311.34 130.683C313.962 131.641 316.199 133.13 318.065 135.155L319.536 133.8C317.452 131.537 314.944 129.871 312.026 128.805L311.34 130.683ZM318.069 135.159C319.833 137.052 320.764 139.642 320.764 143.041H322.764C322.764 139.262 321.719 136.142 319.532 133.796L318.069 135.159ZM320.764 143.041C320.764 147.283 319.088 150.787 315.67 153.616L316.945 155.157C320.802 151.964 322.764 147.904 322.764 143.041H320.764ZM315.667 153.618C312.274 156.447 307.797 157.903 302.144 157.903V159.903C308.149 159.903 313.115 158.349 316.948 155.155L315.667 153.618ZM345.503 158.072L345.693 159.054L346.503 158.897V158.072H345.503ZM334.482 157.024L333.868 157.814L333.878 157.821L334.482 157.024ZM332.062 153.158L331.081 153.354L332.062 153.158ZM331.592 125.011H332.592V124.011H331.592V125.011ZM326.858 125.011H325.858V126.011H326.858V125.011ZM326.858 119.663V118.663H325.858V119.663H326.858ZM331.592 119.663V120.663H332.592V119.663H331.592ZM331.592 110.124V109.124H330.592V110.124H331.592ZM338.385 110.124H339.385V109.124H338.385V110.124ZM338.385 119.663H337.385V120.663H338.385V119.663ZM344.6 119.663H345.6V118.663H344.6V119.663ZM344.6 125.011V126.011H345.6V125.011H344.6ZM338.385 125.011V124.011H337.385V125.011H338.385ZM339.36 152.146L338.617 152.815L338.629 152.828L338.641 152.841L339.36 152.146ZM345.503 152.905H346.503V151.712L345.328 151.921L345.503 152.905ZM345.313 157.09C343.891 157.366 342.329 157.506 340.625 157.506V159.506C342.438 159.506 344.128 159.357 345.693 159.054L345.313 157.09ZM340.625 157.506C337.909 157.506 336.128 157.019 335.087 156.228L333.878 157.821C335.438 159.006 337.752 159.506 340.625 159.506V157.506ZM335.096 156.235C333.978 155.366 333.307 154.284 333.042 152.962L331.081 153.354C331.443 155.164 332.385 156.66 333.868 157.814L335.096 156.235ZM333.042 152.962C332.748 151.49 332.592 149.433 332.592 146.763H330.592C330.592 149.488 330.749 151.695 331.081 153.354L333.042 152.962ZM332.592 146.763V125.011H330.592V146.763H332.592ZM331.592 124.011H326.858V126.011H331.592V124.011ZM327.858 125.011V119.663H325.858V125.011H327.858ZM326.858 120.663H331.592V118.663H326.858V120.663ZM332.592 119.663V110.124H330.592V119.663H332.592ZM331.592 111.124H338.385V109.124H331.592V111.124ZM337.385 110.124V119.663H339.385V110.124H337.385ZM338.385 120.663H344.6V118.663H338.385V120.663ZM343.6 119.663V125.011H345.6V119.663H343.6ZM344.6 124.011H338.385V126.011H344.6V124.011ZM337.385 125.011V147.124H339.385V125.011H337.385ZM337.385 147.124C337.385 148.471 337.468 149.616 337.647 150.54C337.822 151.438 338.11 152.252 338.617 152.815L340.104 151.478C339.96 151.318 339.761 150.934 339.61 150.158C339.465 149.408 339.385 148.403 339.385 147.124H337.385ZM338.641 152.841C339.539 153.772 340.735 154.194 342.106 154.194V152.194C341.166 152.194 340.53 151.918 340.08 151.452L338.641 152.841ZM342.106 154.194C343.341 154.194 344.532 154.094 345.678 153.89L345.328 151.921C344.306 152.102 343.232 152.194 342.106 152.194V154.194ZM344.503 152.905V158.072H346.503V152.905H344.503ZM375.493 147.919L376.315 148.489L376.493 148.232V147.919H375.493ZM375.493 139.428H376.493V138.428H375.493V139.428ZM358.186 152.002L357.594 152.808L357.603 152.815L358.186 152.002ZM375.493 154.062H376.493V151.765L374.812 153.329L375.493 154.062ZM352.693 155.832L352.049 156.597L352.053 156.6L352.693 155.832ZM375.493 134.405V135.405H376.493V134.405H375.493ZM375.06 128.443L374.085 128.668L374.086 128.672L375.06 128.443ZM356.921 130.611V131.611H357.877L357.92 130.656L356.921 130.611ZM350.128 130.611L349.13 130.547L349.062 131.611H350.128V130.611ZM382.286 158V159H383.286V158H382.286ZM375.493 158H374.493V159H375.493V158ZM376.493 147.919V139.428H374.493V147.919H376.493ZM375.493 138.428H370.832V140.428H375.493V138.428ZM370.832 138.428C365.836 138.428 361.932 139.101 359.243 140.564C357.884 141.303 356.816 142.255 356.091 143.438C355.365 144.623 355.018 145.984 355.018 147.485H357.018C357.018 146.301 357.288 145.312 357.796 144.483C358.306 143.651 359.089 142.924 360.199 142.321C362.449 141.097 365.952 140.428 370.832 140.428V138.428ZM355.018 147.485C355.018 149.722 355.867 151.541 357.594 152.808L358.777 151.196C357.614 150.343 357.018 149.151 357.018 147.485H355.018ZM357.603 152.815C359.272 154.011 361.451 154.556 364.039 154.556V152.556C361.713 152.556 359.99 152.065 358.768 151.189L357.603 152.815ZM364.039 154.556C366.436 154.556 368.752 154.013 370.978 152.939L370.108 151.138C368.143 152.086 366.123 152.556 364.039 152.556V154.556ZM370.978 152.939C373.212 151.86 375.002 150.379 376.315 148.489L374.672 147.349C373.575 148.927 372.065 150.193 370.108 151.138L370.978 152.939ZM374.812 153.329C371.557 156.359 367.345 157.903 362.088 157.903V159.903C367.767 159.903 372.492 158.22 376.174 154.794L374.812 153.329ZM362.088 157.903C358.469 157.903 355.578 156.934 353.334 155.064L352.053 156.6C354.723 158.825 358.094 159.903 362.088 159.903V157.903ZM353.338 155.068C351.109 153.188 350.008 150.808 350.008 147.847H348.008C348.008 151.389 349.363 154.332 352.049 156.597L353.338 155.068ZM350.008 147.847C350.008 143.721 351.75 140.691 355.3 138.631C358.933 136.522 364.513 135.405 372.169 135.405V133.405C364.385 133.405 358.383 134.529 354.296 136.901C350.126 139.321 348.008 143.011 348.008 147.847H350.008ZM372.169 135.405H375.493V133.405H372.169V135.405ZM376.493 134.405C376.493 131.65 376.35 129.564 376.033 128.214L374.086 128.672C374.347 129.78 374.493 131.668 374.493 134.405H376.493ZM376.034 128.218C375.673 126.652 374.665 125.413 373.164 124.485L372.113 126.187C373.262 126.897 373.868 127.729 374.085 128.668L376.034 128.218ZM373.164 124.485C371.597 123.516 369.257 123.107 366.315 123.107V125.107C369.155 125.107 371.031 125.518 372.113 126.187L373.164 124.485ZM366.315 123.107C363.188 123.107 360.65 123.661 358.845 124.911C356.984 126.2 356.03 128.136 355.922 130.567L357.92 130.656C358.005 128.75 358.713 127.435 359.983 126.556C361.309 125.638 363.373 125.107 366.315 125.107V123.107ZM356.921 129.611H350.128V131.611H356.921V129.611ZM351.126 130.675C351.363 126.982 352.754 124.328 355.226 122.564C357.744 120.766 361.514 119.796 366.677 119.796V117.796C361.312 117.796 357.062 118.795 354.063 120.936C351.019 123.109 349.399 126.364 349.13 130.547L351.126 130.675ZM366.677 119.796C371.474 119.796 375.072 120.751 377.588 122.538L378.746 120.907C375.769 118.792 371.707 117.796 366.677 117.796V119.796ZM377.588 122.538C379.929 124.202 381.286 127.604 381.286 133.213H383.286C383.286 127.403 381.897 123.146 378.746 120.907L377.588 122.538ZM381.286 133.213V158H383.286V133.213H381.286ZM382.286 157H375.493V159H382.286V157ZM376.493 158V154.062H374.493V158H376.493ZM399.232 124.541H398.232V127.176L399.981 125.205L399.232 124.541ZM423.658 158V159H424.658V158H423.658ZM416.829 158H415.829V159H416.829V158ZM415.131 126.456L414.353 127.084L414.359 127.092L415.131 126.456ZM399.232 130.539L398.469 129.893L398.232 130.172V130.539H399.232ZM399.232 158V159H400.232V158H399.232ZM392.403 158H391.403V159H392.403V158ZM392.403 119.663V118.663H391.403V119.663H392.403ZM399.232 119.663H400.232V118.663H399.232V119.663ZM399.981 125.205C403.23 121.54 406.792 119.796 410.687 119.796V117.796C406.102 117.796 402.028 119.882 398.484 123.878L399.981 125.205ZM410.687 119.796C414.833 119.796 417.766 120.921 419.679 123.004C421.606 125.104 422.658 128.349 422.658 132.924H424.658C424.658 128.081 423.548 124.262 421.152 121.652C418.741 119.025 415.188 117.796 410.687 117.796V119.796ZM422.658 132.924V158H424.658V132.924H422.658ZM423.658 157H416.829V159H423.658V157ZM417.829 158V133.213H415.829V158H417.829ZM417.829 133.213C417.829 130.008 417.259 127.465 415.902 125.82L414.359 127.092C415.267 128.193 415.829 130.155 415.829 133.213H417.829ZM415.909 125.828C414.538 124.129 412.354 123.396 409.639 123.396V125.396C412.03 125.396 413.508 126.037 414.353 127.084L415.909 125.828ZM409.639 123.396C405.746 123.396 402.024 125.696 398.469 129.893L399.995 131.185C403.378 127.192 406.594 125.396 409.639 125.396V123.396ZM398.232 130.539V158H400.232V130.539H398.232ZM399.232 157H392.403V159H399.232V157ZM393.403 158V119.663H391.403V158H393.403ZM392.403 120.663H399.232V118.663H392.403V120.663ZM398.232 119.663V124.541H400.232V119.663H398.232ZM457.876 146.979L458.692 147.558L458.876 147.298V146.979H457.876ZM457.876 128.769H458.876V128.371L458.603 128.081L457.876 128.769ZM440.785 127.901L439.964 127.331L439.963 127.332L440.785 127.901ZM440.641 149.906L439.809 150.461L439.815 150.47L440.641 149.906ZM457.876 153.411H458.876V150.638L457.106 152.773L457.876 153.411ZM435.763 124.288L434.998 123.644L434.997 123.644L435.763 124.288ZM457.876 122.626L457.211 123.373L458.876 124.856V122.626H457.876ZM457.876 105.029V104.029H456.876V105.029H457.876ZM464.669 105.029H465.669V104.029H464.669V105.029ZM464.669 158V159H465.669V158H464.669ZM457.876 158H456.876V159H457.876V158ZM458.876 146.979V128.769H456.876V146.979H458.876ZM458.603 128.081C455.502 124.803 451.889 123.107 447.795 123.107V125.107C451.265 125.107 454.372 126.519 457.149 129.456L458.603 128.081ZM447.795 123.107C444.531 123.107 441.897 124.55 439.964 127.331L441.606 128.472C443.19 126.194 445.229 125.107 447.795 125.107V123.107ZM439.963 127.332C438.06 130.081 437.184 134.067 437.184 139.139H439.184C439.184 134.238 440.041 130.733 441.607 128.471L439.963 127.332ZM437.184 139.139C437.184 143.949 438.013 147.768 439.809 150.461L441.473 149.352C439.992 147.13 439.184 143.771 439.184 139.139H437.184ZM439.815 150.47C441.661 153.172 444.257 154.556 447.506 154.556V152.556C444.926 152.556 442.945 151.506 441.466 149.342L439.815 150.47ZM447.506 154.556C451.757 154.556 455.48 152.09 458.692 147.558L457.06 146.401C454.057 150.638 450.867 152.556 447.506 152.556V154.556ZM457.106 152.773C454.236 156.235 450.857 157.903 446.928 157.903V159.903C451.526 159.903 455.445 157.91 458.646 154.049L457.106 152.773ZM446.928 157.903C442.187 157.903 438.619 156.235 436.085 152.945L434.501 154.166C437.459 158.007 441.647 159.903 446.928 159.903V157.903ZM436.085 152.945C433.514 149.607 432.174 145.039 432.174 139.139H430.174C430.174 145.33 431.58 150.374 434.501 154.166L436.085 152.945ZM432.174 139.139C432.174 133.035 433.663 128.338 436.528 124.932L434.997 123.644C431.744 127.513 430.174 132.716 430.174 139.139H432.174ZM436.528 124.932C439.427 121.489 443.017 119.796 447.361 119.796V117.796C442.407 117.796 438.265 119.765 434.998 123.644L436.528 124.932ZM447.361 119.796C451.28 119.796 454.543 120.996 457.211 123.373L458.541 121.879C455.476 119.149 451.729 117.796 447.361 117.796V119.796ZM458.876 122.626V105.029H456.876V122.626H458.876ZM457.876 106.029H464.669V104.029H457.876V106.029ZM463.669 105.029V158H465.669V105.029H463.669ZM464.669 157H457.876V159H464.669V157ZM458.876 158V153.411H456.876V158H458.876Z" fill="black"/>
</g>
<defs>
<filter id="filter0_dd_2_9" x="2" y="5" width="742" height="262" filterUnits="userSpaceOnUse" color-interpolation-filters="sRGB">
<feFlood flood-opacity="0" result="BackgroundImageFix"/>
<feColorMatrix in="SourceAlpha" type="matrix" values="0 0 0 0 0 0 0 0 0 0 0 0 0 0 0 0 0 0 127 0" result="hardAlpha"/>
<feOffset dy="4"/>
<feGaussianBlur stdDeviation="2"/>
<feComposite in2="hardAlpha" operator="out"/>
<feColorMatrix type="matrix" values="0 0 0 0 0 0 0 0 0 0 0 0 0 0 0 0 0 0 0.25 0"/>
<feBlend mode="normal" in2="BackgroundImageFix" result="effect1_dropShadow_2_9"/>
<feColorMatrix in="SourceAlpha" type="matrix" values="0 0 0 0 0 0 0 0 0 0 0 0 0 0 0 0 0 0 127 0" result="hardAlpha"/>
<feOffset dy="4"/>
<feGaussianBlur stdDeviation="2"/>
<feComposite in2="hardAlpha" operator="out"/>
<feColorMatrix type="matrix" values="0 0 0 0 0 0 0 0 0 0 0 0 0 0 0 0 0 0 0.25 0"/>
<feBlend mode="normal" in2="effect1_dropShadow_2_9" result="effect2_dropShadow_2_9"/>
<feBlend mode="normal" in="SourceGraphic" in2="effect2_dropShadow_2_9" result="shape"/>
</filter>
<filter id="filter1_d_2_9" x="275.561" y="104.126" width="193.108" height="62.7773" filterUnits="userSpaceOnUse" color-interpolation-filters="sRGB">
<feFlood flood-opacity="0" result="BackgroundImageFix"/>
<feColorMatrix in="SourceAlpha" type="matrix" values="0 0 0 0 0 0 0 0 0 0 0 0 0 0 0 0 0 0 127 0" result="hardAlpha"/>
<feOffset dy="4"/>
<feGaussianBlur stdDeviation="2"/>
<feComposite in2="hardAlpha" operator="out"/>
<feColorMatrix type="matrix" values="0 0 0 0 0 0 0 0 0 0 0 0 0 0 0 0 0 0 0.25 0"/>
<feBlend mode="normal" in2="BackgroundImageFix" result="effect1_dropShadow_2_9"/>
<feBlend mode="normal" in="SourceGraphic" in2="effect1_dropShadow_2_9" result="shape"/>
</filter>
</defs>
</svg>
