<svg width="742" height="262" viewBox="0 0 742 262" fill="none" xmlns="http://www.w3.org/2000/svg">
<g filter="url(#filter0_dd_2_9)">
<rect x="11" y="7" width="720" height="240" fill="#6FA8DC"/>
<rect x="7.5" y="3.5" width="727" height="247" stroke="black" stroke-width="7" stroke-linejoin="round"/>
</g>
<g filter="url(#filter1_d_2_9)">
<path d="M300.144 153.903C292.676 153.903 287.088 152.229 283.378 148.881C279.692 145.533 277.753 141.233 277.561 135.981H284.317C284.679 139.932 286.317 142.859 289.231 144.762C292.17 146.641 295.711 147.58 299.854 147.58C303.781 147.58 306.937 146.773 309.321 145.159C311.73 143.545 312.935 141.353 312.935 138.583C312.935 135.668 311.694 133.549 309.213 132.224C306.732 130.899 302.456 129.598 296.386 128.321C290.34 127.021 285.992 125.226 283.342 122.938C280.716 120.649 279.403 117.602 279.403 113.796C279.403 109.508 281.114 105.991 284.534 103.245C287.979 100.499 292.544 99.126 298.229 99.126C304.202 99.126 309.02 100.511 312.682 103.281C316.343 106.051 318.282 109.966 318.499 115.024H311.67C310.971 108.617 306.587 105.413 298.518 105.413C294.615 105.413 291.592 106.148 289.448 107.617C287.304 109.087 286.232 111.038 286.232 113.471C286.232 115.687 287.088 117.349 288.798 118.457C290.532 119.565 293.748 120.637 298.445 121.673C303.167 122.709 306.912 123.732 309.683 124.744C312.453 125.756 314.826 127.334 316.801 129.478C318.776 131.597 319.764 134.452 319.764 138.041C319.764 142.594 317.945 146.376 314.308 149.387C310.694 152.398 305.973 153.903 300.144 153.903ZM343.503 153.072C342.009 153.361 340.383 153.506 338.625 153.506C335.831 153.506 333.783 153.012 332.482 152.024C331.182 151.013 330.375 149.724 330.062 148.158C329.748 146.592 329.592 144.461 329.592 141.763V120.011H324.858V114.663H329.592V105.124H336.385V114.663H342.6V120.011H336.385V142.124C336.385 144.75 336.71 146.424 337.36 147.146C338.035 147.845 338.95 148.194 340.106 148.194C341.287 148.194 342.419 148.098 343.503 147.905V153.072ZM373.493 142.919V134.428H368.832C358.956 134.428 354.018 137.114 354.018 142.485C354.018 144.437 354.74 145.942 356.186 147.002C357.631 148.038 359.582 148.556 362.039 148.556C364.279 148.556 366.447 148.05 368.543 147.038C370.639 146.026 372.289 144.653 373.493 142.919ZM373.493 149.062C370.024 152.289 365.556 153.903 360.088 153.903C356.282 153.903 353.15 152.88 350.693 150.832C348.236 148.76 347.008 146.099 347.008 142.847C347.008 133.886 354.728 129.405 370.169 129.405H373.493C373.493 126.659 373.349 124.672 373.06 123.443C372.771 122.191 371.964 121.155 370.639 120.336C369.314 119.517 367.206 119.107 364.315 119.107C358.245 119.107 355.114 121.275 354.921 125.611H348.128C348.634 117.734 354.15 113.796 364.677 113.796C369.591 113.796 373.421 114.771 376.167 116.723C378.913 118.674 380.286 122.504 380.286 128.213V153H373.493V149.062ZM397.232 119.541C400.629 115.711 404.447 113.796 408.687 113.796C417.334 113.796 421.658 118.505 421.658 127.924V153H414.829V128.213C414.829 125.081 414.263 122.829 413.131 121.456C412.023 120.083 410.192 119.396 407.639 119.396C404.17 119.396 400.701 121.444 397.232 125.539V153H390.403V114.663H397.232V119.541ZM455.876 141.979V123.769C452.937 120.661 449.577 119.107 445.795 119.107C442.88 119.107 440.544 120.372 438.785 122.901C437.051 125.407 436.184 129.152 436.184 134.139C436.184 138.86 437.003 142.449 438.641 144.906C440.303 147.339 442.591 148.556 445.506 148.556C449.312 148.556 452.769 146.364 455.876 141.979ZM455.876 148.411C452.841 152.073 449.191 153.903 444.928 153.903C439.917 153.903 436.039 152.121 433.293 148.556C430.547 144.991 429.174 140.185 429.174 134.139C429.174 127.876 430.703 122.925 433.763 119.288C436.846 115.627 440.712 113.796 445.361 113.796C449.505 113.796 453.009 115.073 455.876 117.626V100.029H462.669V153H455.876V148.411Z" fill="black"/>
<path d="M283.378 148.881L282.705 149.621L282.708 149.623L283.378 148.881ZM277.561 135.981V134.981H276.523L276.561 136.018L277.561 135.981ZM284.317 135.981L285.313 135.89L285.23 134.981H284.317V135.981ZM289.231 144.762L288.685 145.599L288.693 145.604L289.231 144.762ZM309.321 145.159L308.765 144.328L308.761 144.331L309.321 145.159ZM309.213 132.224L308.742 133.106L309.213 132.224ZM296.386 128.321L296.175 129.299L296.18 129.3L296.386 128.321ZM283.342 122.938L282.685 123.691L282.688 123.694L283.342 122.938ZM284.534 103.245L283.911 102.463L283.908 102.465L284.534 103.245ZM312.682 103.281L313.285 102.484L312.682 103.281ZM318.499 115.024V116.024H319.543L319.498 114.982L318.499 115.024ZM311.67 115.024L310.676 115.133L310.773 116.024H311.67V115.024ZM288.798 118.457L288.254 119.296L288.259 119.3L288.798 118.457ZM298.445 121.673L298.23 122.649L298.231 122.65L298.445 121.673ZM309.683 124.744L309.34 125.683L309.683 124.744ZM316.801 129.478L316.065 130.155L316.069 130.159L316.801 129.478ZM314.308 149.387L313.67 148.616L313.667 148.618L314.308 149.387ZM300.144 152.903C292.804 152.903 287.501 151.255 284.048 148.139L282.708 149.623C286.674 153.203 292.548 154.903 300.144 154.903V152.903ZM284.05 148.141C280.576 144.984 278.743 140.944 278.56 135.945L276.561 136.018C276.763 141.522 278.809 146.081 282.705 149.621L284.05 148.141ZM277.561 136.981H284.317V134.981H277.561V136.981ZM283.322 136.073C283.706 140.279 285.476 143.504 288.685 145.599L289.778 143.924C287.157 142.213 285.651 139.585 285.313 135.89L283.322 136.073ZM288.693 145.604C291.821 147.604 295.557 148.58 299.854 148.58V146.58C295.866 146.58 292.52 145.677 289.77 143.919L288.693 145.604ZM299.854 148.58C303.91 148.58 307.281 147.747 309.882 145.987L308.761 144.331C306.592 145.799 303.652 146.58 299.854 146.58V148.58ZM309.878 145.99C312.548 144.201 313.935 141.705 313.935 138.583H311.935C311.935 141.001 310.912 142.89 308.765 144.328L309.878 145.99ZM313.935 138.583C313.935 136.981 313.593 135.542 312.867 134.302C312.141 133.061 311.063 132.078 309.684 131.342L308.742 133.106C309.844 133.694 310.627 134.434 311.141 135.312C311.656 136.192 311.935 137.27 311.935 138.583H313.935ZM309.684 131.342C307.068 129.945 302.671 128.621 296.592 127.343L296.18 129.3C302.242 130.575 306.396 131.853 308.742 133.106L309.684 131.342ZM296.596 127.344C290.606 126.055 286.455 124.305 283.995 122.181L282.688 123.694C285.528 126.147 290.073 127.986 296.175 129.299L296.596 127.344ZM283.999 122.184C281.613 120.104 280.403 117.343 280.403 113.796H278.403C278.403 117.861 279.819 121.194 282.685 123.691L283.999 122.184ZM280.403 113.796C280.403 109.819 281.97 106.586 285.16 104.025L283.908 102.465C280.257 105.396 278.403 109.197 278.403 113.796H280.403ZM285.158 104.027C288.379 101.459 292.704 100.126 298.229 100.126V98.126C292.384 98.126 287.578 99.5394 283.911 102.463L285.158 104.027ZM298.229 100.126C304.05 100.126 308.637 101.475 312.078 104.079L313.285 102.484C309.404 99.5474 304.355 98.126 298.229 98.126V100.126ZM312.078 104.079C315.476 106.649 317.294 110.272 317.5 115.067L319.498 114.982C319.27 109.66 317.211 105.454 313.285 102.484L312.078 104.079ZM318.499 114.024H311.67V116.024H318.499V114.024ZM312.664 114.916C312.29 111.49 310.909 108.807 308.448 107.009C306.02 105.234 302.666 104.413 298.518 104.413V106.413C302.438 106.413 305.312 107.194 307.268 108.623C309.191 110.028 310.351 112.151 310.676 115.133L312.664 114.916ZM298.518 104.413C294.509 104.413 291.257 105.165 288.883 106.792L290.014 108.442C291.927 107.131 294.722 106.413 298.518 106.413V104.413ZM288.883 106.792C286.489 108.433 285.232 110.682 285.232 113.471H287.232C287.232 111.393 288.12 109.74 290.014 108.442L288.883 106.792ZM285.232 113.471C285.232 115.991 286.231 117.985 288.254 119.296L289.342 117.618C287.944 116.712 287.232 115.383 287.232 113.471H285.232ZM288.259 119.3C290.158 120.512 293.531 121.613 298.23 122.649L298.661 120.696C293.965 119.661 290.907 118.618 289.336 117.614L288.259 119.3ZM298.231 122.65C302.932 123.681 306.629 124.694 309.34 125.683L310.026 123.805C307.196 122.771 303.401 121.736 298.66 120.696L298.231 122.65ZM309.34 125.683C311.962 126.641 314.199 128.13 316.065 130.155L317.536 128.8C315.452 126.537 312.944 124.871 310.026 123.805L309.34 125.683ZM316.069 130.159C317.833 132.052 318.764 134.642 318.764 138.041H320.764C320.764 134.262 319.719 131.142 317.532 128.796L316.069 130.159ZM318.764 138.041C318.764 142.283 317.088 145.787 313.67 148.616L314.945 150.157C318.802 146.964 320.764 142.904 320.764 138.041H318.764ZM313.667 148.618C310.274 151.447 305.797 152.903 300.144 152.903V154.903C306.149 154.903 311.115 153.349 314.948 150.155L313.667 148.618ZM343.503 153.072L343.693 154.054L344.503 153.897V153.072H343.503ZM332.482 152.024L331.868 152.814L331.878 152.821L332.482 152.024ZM330.062 148.158L329.081 148.354L330.062 148.158ZM329.592 120.011H330.592V119.011H329.592V120.011ZM324.858 120.011H323.858V121.011H324.858V120.011ZM324.858 114.663V113.663H323.858V114.663H324.858ZM329.592 114.663V115.663H330.592V114.663H329.592ZM329.592 105.124V104.124H328.592V105.124H329.592ZM336.385 105.124H337.385V104.124H336.385V105.124ZM336.385 114.663H335.385V115.663H336.385V114.663ZM342.6 114.663H343.6V113.663H342.6V114.663ZM342.6 120.011V121.011H343.6V120.011H342.6ZM336.385 120.011V119.011H335.385V120.011H336.385ZM337.36 147.146L336.617 147.815L336.629 147.828L336.641 147.841L337.36 147.146ZM343.503 147.905H344.503V146.712L343.328 146.921L343.503 147.905ZM343.313 152.09C341.891 152.366 340.329 152.506 338.625 152.506V154.506C340.438 154.506 342.128 154.357 343.693 154.054L343.313 152.09ZM338.625 152.506C335.909 152.506 334.128 152.019 333.087 151.228L331.878 152.821C333.438 154.006 335.752 154.506 338.625 154.506V152.506ZM333.096 151.235C331.978 150.366 331.307 149.284 331.042 147.962L329.081 148.354C329.443 150.164 330.385 151.66 331.868 152.814L333.096 151.235ZM331.042 147.962C330.748 146.49 330.592 144.433 330.592 141.763H328.592C328.592 144.488 328.749 146.695 329.081 148.354L331.042 147.962ZM330.592 141.763V120.011H328.592V141.763H330.592ZM329.592 119.011H324.858V121.011H329.592V119.011ZM325.858 120.011V114.663H323.858V120.011H325.858ZM324.858 115.663H329.592V113.663H324.858V115.663ZM330.592 114.663V105.124H328.592V114.663H330.592ZM329.592 106.124H336.385V104.124H329.592V106.124ZM335.385 105.124V114.663H337.385V105.124H335.385ZM336.385 115.663H342.6V113.663H336.385V115.663ZM341.6 114.663V120.011H343.6V114.663H341.6ZM342.6 119.011H336.385V121.011H342.6V119.011ZM335.385 120.011V142.124H337.385V120.011H335.385ZM335.385 142.124C335.385 143.471 335.468 144.616 335.647 145.54C335.821 146.438 336.11 147.252 336.617 147.815L338.104 146.478C337.96 146.318 337.761 145.934 337.61 145.158C337.465 144.408 337.385 143.403 337.385 142.124H335.385ZM336.641 147.841C337.539 148.772 338.735 149.194 340.106 149.194V147.194C339.166 147.194 338.53 146.918 338.08 146.452L336.641 147.841ZM340.106 149.194C341.341 149.194 342.532 149.094 343.678 148.89L343.328 146.921C342.306 147.102 341.232 147.194 340.106 147.194V149.194ZM342.503 147.905V153.072H344.503V147.905H342.503ZM373.493 142.919L374.315 143.489L374.493 143.232V142.919H373.493ZM373.493 134.428H374.493V133.428H373.493V134.428ZM356.186 147.002L355.594 147.808L355.603 147.815L356.186 147.002ZM373.493 149.062H374.493V146.765L372.812 148.329L373.493 149.062ZM350.693 150.832L350.049 151.597L350.053 151.6L350.693 150.832ZM373.493 129.405V130.405H374.493V129.405H373.493ZM373.06 123.443L372.085 123.668L372.086 123.672L373.06 123.443ZM354.921 125.611V126.611H355.877L355.92 125.656L354.921 125.611ZM348.128 125.611L347.13 125.547L347.062 126.611H348.128V125.611ZM380.286 153V154H381.286V153H380.286ZM373.493 153H372.493V154H373.493V153ZM374.493 142.919V134.428H372.493V142.919H374.493ZM373.493 133.428H368.832V135.428H373.493V133.428ZM368.832 133.428C363.836 133.428 359.932 134.101 357.243 135.564C355.884 136.303 354.816 137.255 354.091 138.438C353.365 139.623 353.018 140.984 353.018 142.485H355.018C355.018 141.301 355.288 140.312 355.796 139.483C356.306 138.651 357.089 137.924 358.199 137.321C360.449 136.097 363.952 135.428 368.832 135.428V133.428ZM353.018 142.485C353.018 144.722 353.867 146.541 355.594 147.808L356.777 146.196C355.614 145.343 355.018 144.151 355.018 142.485H353.018ZM355.603 147.815C357.272 149.011 359.451 149.556 362.039 149.556V147.556C359.713 147.556 357.99 147.065 356.768 146.189L355.603 147.815ZM362.039 149.556C364.436 149.556 366.752 149.013 368.978 147.939L368.108 146.138C366.143 147.086 364.123 147.556 362.039 147.556V149.556ZM368.978 147.939C371.212 146.86 373.002 145.379 374.315 143.489L372.672 142.349C371.575 143.927 370.065 145.193 368.108 146.138L368.978 147.939ZM372.812 148.329C369.557 151.359 365.345 152.903 360.088 152.903V154.903C365.767 154.903 370.492 153.22 374.174 149.794L372.812 148.329ZM360.088 152.903C356.469 152.903 353.578 151.934 351.334 150.064L350.053 151.6C352.723 153.825 356.094 154.903 360.088 154.903V152.903ZM351.338 150.068C349.109 148.188 348.008 145.808 348.008 142.847H346.008C346.008 146.389 347.363 149.332 350.049 151.597L351.338 150.068ZM348.008 142.847C348.008 138.721 349.75 135.691 353.3 133.631C356.933 131.522 362.513 130.405 370.169 130.405V128.405C362.385 128.405 356.383 129.529 352.296 131.901C348.126 134.321 346.008 138.011 346.008 142.847H348.008ZM370.169 130.405H373.493V128.405H370.169V130.405ZM374.493 129.405C374.493 126.65 374.35 124.564 374.033 123.214L372.086 123.672C372.347 124.78 372.493 126.668 372.493 129.405H374.493ZM374.034 123.218C373.673 121.652 372.665 120.413 371.164 119.485L370.113 121.187C371.262 121.897 371.868 122.729 372.085 123.668L374.034 123.218ZM371.164 119.485C369.597 118.516 367.257 118.107 364.315 118.107V120.107C367.155 120.107 369.031 120.518 370.113 121.187L371.164 119.485ZM364.315 118.107C361.188 118.107 358.65 118.661 356.845 119.911C354.984 121.2 354.03 123.136 353.922 125.567L355.92 125.656C356.005 123.75 356.713 122.435 357.983 121.556C359.309 120.638 361.373 120.107 364.315 120.107V118.107ZM354.921 124.611H348.128V126.611H354.921V124.611ZM349.126 125.675C349.363 121.982 350.754 119.328 353.226 117.564C355.744 115.766 359.514 114.796 364.677 114.796V112.796C359.312 112.796 355.062 113.795 352.063 115.936C349.019 118.109 347.399 121.364 347.13 125.547L349.126 125.675ZM364.677 114.796C369.474 114.796 373.072 115.751 375.588 117.538L376.746 115.907C373.769 113.792 369.707 112.796 364.677 112.796V114.796ZM375.588 117.538C377.929 119.202 379.286 122.604 379.286 128.213H381.286C381.286 122.403 379.897 118.146 376.746 115.907L375.588 117.538ZM379.286 128.213V153H381.286V128.213H379.286ZM380.286 152H373.493V154H380.286V152ZM374.493 153V149.062H372.493V153H374.493ZM397.232 119.541H396.232V122.176L397.981 120.205L397.232 119.541ZM421.658 153V154H422.658V153H421.658ZM414.829 153H413.829V154H414.829V153ZM413.131 121.456L412.353 122.084L412.359 122.092L413.131 121.456ZM397.232 125.539L396.469 124.893L396.232 125.172V125.539H397.232ZM397.232 153V154H398.232V153H397.232ZM390.403 153H389.403V154H390.403V153ZM390.403 114.663V113.663H389.403V114.663H390.403ZM397.232 114.663H398.232V113.663H397.232V114.663ZM397.981 120.205C401.23 116.54 404.792 114.796 408.687 114.796V112.796C404.102 112.796 400.028 114.882 396.484 118.878L397.981 120.205ZM408.687 114.796C412.833 114.796 415.766 115.921 417.679 118.004C419.606 120.104 420.658 123.349 420.658 127.924H422.658C422.658 123.081 421.548 119.262 419.152 116.652C416.741 114.025 413.188 112.796 408.687 112.796V114.796ZM420.658 127.924V153H422.658V127.924H420.658ZM421.658 152H414.829V154H421.658V152ZM415.829 153V128.213H413.829V153H415.829ZM415.829 128.213C415.829 125.008 415.259 122.465 413.902 120.82L412.359 122.092C413.267 123.193 413.829 125.155 413.829 128.213H415.829ZM413.909 120.828C412.538 119.129 410.354 118.396 407.639 118.396V120.396C410.03 120.396 411.508 121.037 412.353 122.084L413.909 120.828ZM407.639 118.396C403.746 118.396 400.024 120.696 396.469 124.893L397.995 126.185C401.378 122.192 404.594 120.396 407.639 120.396V118.396ZM396.232 125.539V153H398.232V125.539H396.232ZM397.232 152H390.403V154H397.232V152ZM391.403 153V114.663H389.403V153H391.403ZM390.403 115.663H397.232V113.663H390.403V115.663ZM396.232 114.663V119.541H398.232V114.663H396.232ZM455.876 141.979L456.692 142.558L456.876 142.298V141.979H455.876ZM455.876 123.769H456.876V123.371L456.603 123.081L455.876 123.769ZM438.785 122.901L437.964 122.331L437.963 122.332L438.785 122.901ZM438.641 144.906L437.809 145.461L437.815 145.47L438.641 144.906ZM455.876 148.411H456.876V145.638L455.106 147.773L455.876 148.411ZM433.763 119.288L432.998 118.644L432.997 118.644L433.763 119.288ZM455.876 117.626L455.211 118.373L456.876 119.856V117.626H455.876ZM455.876 100.029V99.0293H454.876V100.029H455.876ZM462.669 100.029H463.669V99.0293H462.669V100.029ZM462.669 153V154H463.669V153H462.669ZM455.876 153H454.876V154H455.876V153ZM456.876 141.979V123.769H454.876V141.979H456.876ZM456.603 123.081C453.502 119.803 449.889 118.107 445.795 118.107V120.107C449.265 120.107 452.372 121.519 455.149 124.456L456.603 123.081ZM445.795 118.107C442.531 118.107 439.897 119.55 437.964 122.331L439.606 123.472C441.19 121.194 443.229 120.107 445.795 120.107V118.107ZM437.963 122.332C436.06 125.081 435.184 129.067 435.184 134.139H437.184C437.184 129.238 438.041 125.733 439.607 123.471L437.963 122.332ZM435.184 134.139C435.184 138.949 436.013 142.768 437.809 145.461L439.473 144.352C437.992 142.13 437.184 138.771 437.184 134.139H435.184ZM437.815 145.47C439.661 148.172 442.257 149.556 445.506 149.556V147.556C442.926 147.556 440.945 146.506 439.466 144.342L437.815 145.47ZM445.506 149.556C449.757 149.556 453.48 147.09 456.692 142.558L455.06 141.401C452.057 145.638 448.867 147.556 445.506 147.556V149.556ZM455.106 147.773C452.236 151.235 448.857 152.903 444.928 152.903V154.903C449.526 154.903 453.445 152.91 456.646 149.049L455.106 147.773ZM444.928 152.903C440.187 152.903 436.619 151.235 434.085 147.945L432.501 149.166C435.459 153.007 439.647 154.903 444.928 154.903V152.903ZM434.085 147.945C431.514 144.607 430.174 140.039 430.174 134.139H428.174C428.174 140.33 429.58 145.374 432.501 149.166L434.085 147.945ZM430.174 134.139C430.174 128.035 431.663 123.338 434.528 119.932L432.997 118.644C429.744 122.513 428.174 127.716 428.174 134.139H430.174ZM434.528 119.932C437.427 116.489 441.017 114.796 445.361 114.796V112.796C440.407 112.796 436.265 114.765 432.998 118.644L434.528 119.932ZM445.361 114.796C449.28 114.796 452.543 115.996 455.211 118.373L456.541 116.879C453.476 114.149 449.729 112.796 445.361 112.796V114.796ZM456.876 117.626V100.029H454.876V117.626H456.876ZM455.876 101.029H462.669V99.0293H455.876V101.029ZM461.669 100.029V153H463.669V100.029H461.669ZM462.669 152H455.876V154H462.669V152ZM456.876 153V148.411H454.876V153H456.876Z" fill="black"/>
</g>
<defs>
<filter id="filter0_dd_2_9" x="0" y="0" width="742" height="262" filterUnits="userSpaceOnUse" color-interpolation-filters="sRGB">
<feFlood flood-opacity="0" result="BackgroundImageFix"/>
<feColorMatrix in="SourceAlpha" type="matrix" values="0 0 0 0 0 0 0 0 0 0 0 0 0 0 0 0 0 0 127 0" result="hardAlpha"/>
<feOffset dy="4"/>
<feGaussianBlur stdDeviation="2"/>
<feComposite in2="hardAlpha" operator="out"/>
<feColorMatrix type="matrix" values="0 0 0 0 0 0 0 0 0 0 0 0 0 0 0 0 0 0 0.25 0"/>
<feBlend mode="normal" in2="BackgroundImageFix" result="effect1_dropShadow_2_9"/>
<feColorMatrix in="SourceAlpha" type="matrix" values="0 0 0 0 0 0 0 0 0 0 0 0 0 0 0 0 0 0 127 0" result="hardAlpha"/>
<feOffset dy="4"/>
<feGaussianBlur stdDeviation="2"/>
<feComposite in2="hardAlpha" operator="out"/>
<feColorMatrix type="matrix" values="0 0 0 0 0 0 0 0 0 0 0 0 0 0 0 0 0 0 0.25 0"/>
<feBlend mode="normal" in2="effect1_dropShadow_2_9" result="effect2_dropShadow_2_9"/>
<feBlend mode="normal" in="SourceGraphic" in2="effect2_dropShadow_2_9" result="shape"/>
</filter>
<filter id="filter1_d_2_9" x="273.561" y="99.126" width="193.108" height="62.7773" filterUnits="userSpaceOnUse" color-interpolation-filters="sRGB">
<feFlood flood-opacity="0" result="BackgroundImageFix"/>
<feColorMatrix in="SourceAlpha" type="matrix" values="0 0 0 0 0 0 0 0 0 0 0 0 0 0 0 0 0 0 127 0" result="hardAlpha"/>
<feOffset dy="4"/>
<feGaussianBlur stdDeviation="2"/>
<feComposite in2="hardAlpha" operator="out"/>
<feColorMatrix type="matrix" values="0 0 0 0 0 0 0 0 0 0 0 0 0 0 0 0 0 0 0.25 0"/>
<feBlend mode="normal" in2="BackgroundImageFix" result="effect1_dropShadow_2_9"/>
<feBlend mode="normal" in="SourceGraphic" in2="effect1_dropShadow_2_9" result="shape"/>
</filter>
</defs>
</svg>
